<?xml version="1.0" encoding="utf-8"?>
<!-- Generator: Adobe Illustrator 26.3.1, SVG Export Plug-In . SVG Version: 6.00 Build 0)  -->
<svg version="1.1" id="Layer_1" xmlns="http://www.w3.org/2000/svg" xmlns:xlink="http://www.w3.org/1999/xlink" x="0px" y="0px"
	 viewBox="0 0 478 412" style="enable-background:new 0 0 478 412;" xml:space="preserve">
<style type="text/css">
	.st0{fill:#EFF4ED;}
</style>
<g id="efLk3U.tif">
	<g>
		<g>
			<g>
				<path class="st0" d="M195,335.6c3.2,2.9,7.4,7.4,12,3.4c4.3-3.7,0.3-8-2.1-11.4c-2.6-3.7-5.9-6.9-8.9-10.3c-0.8-1-1.6-2-2.4-2.9
					C192,315,147.4,247.1,139,241c-1.4-1-11.7-9.7,8,19c10.6,15.5,57.9,76.3,56.8,77c-8.5-5-18.2-17.3-23.8-24
					c-1.4,0.7,1.4,7.1,0,7.8c0.7,0.3,2.5,2.7,3,3.2C187.6,328.4,190.3,331.4,195,335.6z"/>
				<path class="st0" d="M427.1,116.9c-5.9-14.7-11.8-29.5-18.2-44c-1.2-2.6-4.3-5.4-7.1-6.3c-27.2-9.2-54.5-17.9-81.7-27
					c-4.9-1.6-8.2-1-12,2.4c-16.2,14.7-32.6,29.3-49,43.8c-6.9,6.2-13.9,12.3-21.7,19.1c-1.2-1.7-2-2.8-2.8-3.9
					c-16.1-20.3-32.3-40.5-48.2-61c-3.9-5-7.5-6.4-13.8-4.5c-28.3,8.4-56.8,16.1-85,24.5c-3.3,1-6.7,3.8-8.4,6.7
					c-7.6,12.4-14.8,25.1-21.7,37.9c-1.7,3.1-2.6,7-2.3,10.5c1.5,22.8,3.9,45.5,4.9,68.3c0.5,10.6,3.4,19.4,11.8,26.3
					c1.4,1.1,2.5,2.5,3.7,3.9c3.9,4.3,7.8,8.7,12.2,13.6c-0.2,0.1-0.4,0.2-0.6,0.4c0.4,0.3,7.4,7.4,7.3,8c0,0,14.5,19.5,16.2,21.6
					c0.1,0.1,62.2,69.9,62.3,70.1c2.6-1.1,3.3,0.1,6-1c-1.7-2.2-63.3-76.4-65.1-78.4c-14-15.2-28.1-30.3-42-45.5
					c-1.3-1.4-2.5-4.4-1.8-5.7c1.7-3.4,4.6-6.2,7.1-9.3c1.4,0.9,2.1,1.2,2.7,1.7c4.3,3.6,8.2,7.7,12.9,10.6c2.2,1.4,6.5,1.4,8.8,0.2
					c1.3-0.7,0.8-5.1,0.6-7.7c-0.1-1.8-1.1-3.6-1.7-5.4c0.7-0.4,1.3-0.8,2-1.2c2.7,2.9,5.4,5.9,8,8.9C122.8,208,207.6,315,220,329
					c1.1,1.3-12.8-18.7-11-18c-0.5-1.7,3.8,1.6,3,0c-0.6-1.2-62.8-80-63.7-81.1c-16.8-19.3-33.5-38.6-50.5-57.8
					c-3.6-4.1-5.4-8.4-5.7-13.7c-1.7-28.8-3.5-57.6-5.5-86.4c-0.4-5.4,1.5-7.5,6.7-8.9c26.3-7.3,52.5-14.7,78.7-22.5
					c5.1-1.5,8.1-0.7,11.3,3.4c15.4,19.8,31.3,39.3,46.6,59.3c3.4,4.4,6,9.8,7.3,15.1c6.9,28.1,13.3,56.3,19.9,84.4
					c0.5,2.2,20,94,20.9,96.2c1-0.2,4-1.8,5-2c-0.2-2.5-20.7-93.3-21.3-95.7c-6.6-28.6-13.1-57.1-20-85.6c-1.3-5.2,0.1-8.2,4-11.6
					c21.7-19.1,43.2-38.3,64.7-57.7c2.9-2.7,5.4-3.2,9.2-1.9c24.9,8.4,49.8,16.6,74.8,24.6c4.7,1.5,6.3,3.4,5.7,8.3
					c-3.6,29.2-6.7,58.5-10.4,87.8c-0.5,3.8-2.3,7.9-4.7,11.1c-6.9,9.4-94.5,110-94.9,111.8c1.6-0.7,8.8-1.6,10.7-2.7
					c0.4-0.5,0.8-1,1.3-1.5c11-13.3,79-94.5,85.5-102.8c1.2-1.6,2.8-2.9,4.7-4.9c5.2,8.4,10,15.8,14.3,23.5c0.8,1.5,0.2,4.5-1,6
					c-2.3,3-73.9,76.2-81.9,84.6c-0.3,0.4-0.6,0.8-0.9,1.2c-0.5,1.1-0.6,3.3,0.3,3.6c0.4-0.2,5.7-1.7,6-2c4.7-4.3,80.7-84.3,84.9-89
					c1.5-1.6,2.6-4,2.9-6.2c3.9-24.7,7.6-49.4,11.2-74.1C428.4,121.5,427.9,119,427.1,116.9z M85.2,127.2
					c-6.2-6.7-7.1-19.5-1.4-26.5C84.3,109.1,84.7,117.5,85.2,127.2z M67.7,190.5c-0.6-0.2-1.2-0.4-1.8-0.6c-0.6-7.5-1.3-15-1.9-22.6
					c-1.3-16.5-2.6-33-3.9-49.5c-0.6-8,0.5-11.1,8.2-20.7c0.6,6,1.9,10.7,1.3,15.1c-2.5,18.4,4.1,34.1,14.4,48.9
					c2.4,3.4,2.5,6-0.3,9.3C78.3,176.9,73.1,183.8,67.7,190.5z M99.5,181.4c-6.7,5.1-0.9,10-0.1,15.1c-6.8-0.4-15.5-7.5-18.1-14.1
					C86.8,182.1,92.4,181.8,99.5,181.4z M94.6,176.2l-0.7,1.8c-2.7,0.2-5.4,0.3-8.2,0.5c-0.2-0.5-0.5-1-0.7-1.5
					c1.4-1.9,2.8-3.8,4.8-6.4C91.8,172.9,93.2,174.6,94.6,176.2z M85.9,157c-7.5-12.1-12.8-23.1-12.8-36.1c0-8.7-0.5-17.5-1.4-26.1
					c-0.8-8.4,5.8-13.1,9.1-19.6c1.3,7.3,3.3,13.8-1.1,21.4c-6.1,10.6-5.9,22.5,1.2,33.4C86,137.7,87.8,145.5,85.9,157z
					 M409.5,132.5c1.4-12.1,2.6-22.6,3.8-33.1C422.3,108.6,421.5,125.5,409.5,132.5z M412.2,196.3c-3.5-3.9-3.5-3.9-1.4-12.4
					c1-4,1.8-8.1,2.7-12.2c-0.9-0.3-1.9-0.6-2.8-0.9c-1.7,5.1-3.4,10.1-5.1,15.4c-10.3-9.3-13.4-21.3-8.7-31.8
					c6.4,2.4,12.8,4.8,20.7,7.7C415.9,172.6,414.1,184.1,412.2,196.3z M418.3,152.3c-0.4,1.7-3.7,3.7-5.8,3.9
					c-5.2,0.6-12.7-5.3-13.8-10.4c-0.6-2.8-1-5.8-0.7-8.7c2-19,4.2-38,6.3-56.9c0.6-0.1,1.3-0.2,1.9-0.3c2,4.9,4.7,8.9,3.3,15.4
					c-2.4,11.2-2.9,22.7-3.7,34.2c-0.1,2,1.7,5.4,3.5,6c1.8,0.6,5-0.8,6.9-2.2c2.2-1.7,3.5-4.5,6.5-6.5
					C421.3,135.3,420.2,143.9,418.3,152.3z"/>
				<path class="st0" d="M312.6,299.6c0.4-0.3,0.8-0.7,1.2-1c0.5-0.5,0.9-1,1.4-1.5c0.2-0.2,0.4-0.5,0.6-0.7
					c0.3-0.3,0.5-0.6,0.8-0.9c0.9-1,1.8-2,2.8-2.9c0.2-0.6,0.5-1.2,0.9-1.7c0.4-0.6,0.8-1.2,1.2-1.6c-1.8-0.3-3.6-0.7-5.3-1.1
					c-0.4,0.4-0.7,0.9-1.1,1.3c0,0,0,0,0,0l0.3,0.3c-1.5,2.8-3,5.7-4.6,8.5C311.4,298.7,312,299.1,312.6,299.6z"/>
				<path class="st0" d="M324.1,289.6c-0.2,0.4-0.5,0.7-0.7,1c0.1,0.1,0.1,0.1,0.2,0.2c-0.6,0.6-1.2,1.1-1.8,1.7
					c0,0.1-0.1,0.1-0.1,0.2c-0.1,0.1-0.1,0.2-0.2,0.4c-0.1,0.6-0.6,1.2-1,1.6c-0.5,0.5-1,1-1.5,1.4c-0.4,0.4-0.8,0.7-1.2,1.1
					c-3.6,4.4-7.2,8.7-13.5,10.4c-1.7,0.4-3.7-0.4-5.5-0.7c0.6-1.6,0.8-3.3,1.8-4.6c2.9-3.8,5.9-7.4,9.1-10.9
					c0.6-0.7,1.4-1.1,2.3-1.6c0.2-0.2,0.4-0.4,0.6-0.6c0.4-0.5,0.8-0.9,1.2-1.4c0.1-0.1,0.2-0.2,0.2-0.3c-1.6-0.4-3.2-0.8-4.8-1.2
					c-1.9,2.1-3.6,4.3-5.9,6.1c-1.7,2-3.3,4-5,6.1c-6.5,7.8-6.1,10.5,3.3,15.7c-7.8,8-15.1,15.6-22.5,23.2c-0.5-0.3-1-0.6-1.4-0.8
					c2.4-5,5.2-9.8,7-15c1.3-3.7,0.9-7.8,1.6-11.7c0.6-3.2,1-6.7,2.7-9.4c2.2-3.6,5.3-6.9,8.5-9.8c0,0,0,0,0,0
					c0-0.7,0.2-1.3,0.8-1.9c0.9-1,1.3-2.3,2.1-3.3c0.2-0.3,0.5-0.7,0.8-1c-0.2,0-0.4-0.1-0.6-0.1c-0.6,0-1.7-0.1-1.9-0.1
					c-0.8,0-3.8,0.5-3.7,0.3c-0.6,0.2-1.2,0.4-1.7,0.5c-1.1,0.6-3.7,2.9-3.1,2.7l0.8,1.6c-2.1,2.4-4.1,4.9-6.2,7.3l-1.9-0.3
					c-0.1-1.3-0.6-2.9-0.8-4.3c-1.6,1.1-3.2,2.2-4.9,3.3c0.9,4.5,2.2,9,3.5,13.4c0.9,3.1-0.1,4.7-3.2,5.7
					c-15.4,4.7-30.8,9.6-46.3,14.2c-1.5,0.4-4.1,0.2-4.9-0.7c-5.5-6.1-10.7-12.5-16.8-19.9c-1.9,0.7-3.7,1.3-5.5,2
					c0.4,0.3,0.7,0.5,1,0.9c5.1,6.1,10.2,12.1,15,18.4c0.9,1.2,1.6,3.6,1,4.6c-4.5,7.1-9.4,14-14.9,22c-10.3-11.5-20-22.4-29.6-33.3
					c-1.6,0.9-3.3,1.9-4.9,2.9c0.9,0.6,1.8,1.4,2.7,2.6c8.8,10.7,18.5,20.7,27.5,31.2c3.5,4.1,7.1,6,12.5,3.7
					c1.3-0.6,2.8-0.5,4.1-1.1c10.8-5.2,20.2-3,28.4,5c4.6,4.6,8,3.6,12.3-1c22.5-23.8,45.3-47.3,67.8-71.1c0.4-0.4,0.8-0.8,1.2-1.1
					c1-1.4,2.2-2.7,3.5-3.9C329.1,290.1,326.6,289.9,324.1,289.6z M246.9,329.8c5.1-1.7,10.2-3.2,16.2-5c0.2,5.2-1,7.9-5.8,8.1
					c-3,0.2-5.9,0.9-8.9,1c-1.3,0-2.7-0.9-4-1.4C245.3,331.6,245.9,330.1,246.9,329.8z M212.6,358.4c1.3-7.3,5.5-8.4,13-6.5
					c-2.5-3.1-3.8-4.8-5.5-7c2.4-3.1,4.6-6,6.1-8c5,4.7,9.4,8.8,14.6,13.7C230.9,353.3,222,355.8,212.6,358.4z M255,362.3
					c-1,0.9-3.8,1-5.2,0.3c-2.8-1.3-5.3-3.4-9.3-6.2c9.1-2.6,16.8-4.9,24.5-7.1c0.4,0.6,0.7,1.1,1.1,1.7
					C262.4,354.8,259,358.7,255,362.3z M260.1,345.3c-8.6,3.8-16.2,2.6-23.4-3.7c-4.8-4.2-4.9-5.8,1.3-8.8c5.4,5,17.7,6.8,24.2,2.9
					c2.2-1.3,4-3.9,4.8-6.3c2.6-7.3,2.4-7.3,12.3-8.9c-3.4,7.3-6,14.1-9.9,20.2C267.8,343.2,263.3,343.9,260.1,345.3z"/>
			</g>
		</g>
		<g>
			<g>
				<path class="st0" d="M123,249.1c1.2,1.2,56.5,71.9,58,72.9c0,0,4-1,3-3c-4.5-9-71.7-86.7-78.5-94.2c-2.8-3-8.2-6.7-3.8-10.7
					c4.3-3.9,7.9,1.7,10.7,4.4c8.6,8.5,70.2,89.7,78.6,98.4c0.7,0.7-49.1-70.9-48-71.2c-0.7-1.1-1.3-2.2-2.2-3.1
					c-7.9-8.6-15.9-17.1-24-25.5c-2.3-2.4-4.8-5.2-7.8-6.3c-3-1.1-8.2-1.7-9.8-0.2c-2.1,2.1-1.9,6.5-2,10c0,1.4,1.7,3.1,2.9,4.3
					C107.7,233.1,115.3,241.1,123,249.1z"/>
			</g>
		</g>
		<g>
			<g>
				<path class="st0" d="M398.2,195.4c-1.3-1.4-5.8-2.3-7-1.3c-5.8,4.8-79.9,90.6-85.2,95.8c-0.1,0.1,3.4,0.2,4,1
					c0.6-0.4,1.6-1.1,2.5-1.8c0.4-0.4,0.8-0.9,1.2-1.3c0.8-1,1.6-1.9,2.6-2.7c0.1-0.1,0.2-0.1,0.3-0.2c13-15.2,67.9-81.6,70.8-83.7
					c2.1-1.6,5.1-2,7.7-2.9c-0.6,2.4-1,4.9-1.9,7.3c-0.7,1.9-77.2,82.5-78.2,84.4c0.9,0.6,4.1,0.4,5,1c2.4-3.3,78-84.6,79.6-88.2
					C400.4,200.7,399.7,197.1,398.2,195.4z"/>
			</g>
		</g>
		<g>
			<g>
				<path class="st0" d="M132.9,248.7c-5.9-5.7-11.7-11.4-17.6-17.1C121.5,230.8,133.5,242.5,132.9,248.7z"/>
			</g>
		</g>
		<g>
			<g>
				<path class="st0" d="M125,221.5c-3.7-4.1-7.4-8.3-12-13.3c6.3,0.2,12.6,6.7,13.5,12.1C126,220.6,125.5,221.1,125,221.5z"/>
			</g>
		</g>
		<g>
			<g>
				<path class="st0" d="M74.5,202c6.7-0.4,13.5,6,13,12.1C83.5,210.4,79.6,206.7,74.5,202z"/>
			</g>
		</g>
		<g>
			<g>
				<path class="st0" d="M68.9,140.7c-4.4,6.7,3,26.2,10.1,27.8C75.7,159.4,72.5,150.4,68.9,140.7z M63.1,125.5
					c0.9-0.1,1.8-0.1,2.6-0.2c0.8-4.8,1.7-9.7-0.8-14.3c-0.9,0.1-1.7,0.1-2.6,0.2C62.6,116,62.9,120.8,63.1,125.5z M69.8,177.7
					c1.1-0.3,2.3-0.7,3.4-1c-1.2-3.7-2.5-7.4-3.7-11.1c-1,0.3-2,0.6-2.9,0.9C67.6,170.2,68.7,174,69.8,177.7z"/>
			</g>
		</g>
		<g>
			<g>
				<path class="st0" d="M402.8,135.4c-3.4,3.9-1.6,7,1,9.4c1.3,1.2,3.9,1.3,5.9,1.9c0.1-0.5,0.2-1,0.3-1.5
					C407.7,142.1,405.5,139.1,402.8,135.4z"/>
			</g>
		</g>
		<g>
			<g>
				<path class="st0" d="M83.8,100.7c0.5,8.4,0.9,16.8,1.4,26.5"/>
			</g>
		</g>
		<g>
			<g>
				<path class="st0" d="M63.1,125.5c-0.3-4.8-0.5-9.5-0.8-14.3c0.9-0.1,1.7-0.1,2.6-0.2c2.5,4.6,1.6,9.5,0.8,14.3
					C64.9,125.4,64,125.5,63.1,125.5z"/>
			</g>
		</g>
		<g>
			<g>
				<path class="st0" d="M69.8,177.7c-1.1-3.8-2.2-7.5-3.3-11.3c1-0.3,2-0.6,2.9-0.9c1.2,3.7,2.5,7.4,3.7,11.1
					C72.1,177,70.9,177.4,69.8,177.7z"/>
			</g>
		</g>
	</g>
</g>
<g>
	<g>
		<path class="st0" d="M139.2,82.5c0.1-0.3,0.3-0.5,0.5-0.5c0.3-0.1,0.6,0,0.9,0.3c0.1,0.1,0.3,0.5,0.6,1.2c0.3,0.7,0.6,1.6,1,2.7
			c0.4,1.1,0.8,2.1,1.1,3.2c0.3,1,0.7,2.1,1.1,3.2c0.4,1.1,0.6,1.8,0.7,2.1c0.5-0.2,1.3-0.4,2.4-0.8c3.4-1.1,5.5-1.3,6.3-0.7
			c0.1,0.1,0.2,0.2,0.3,0.3c0.1,0.1,0.1,0.3,0,0.5c-0.1,0.3-0.4,0.6-0.9,0.8c0,0-0.1,0-0.1,0c-0.6,0.2-2.3,0.7-5.1,1.4
			c-2.6,0.7-4,1-4.2,0.8c-0.3-0.1-0.5-0.6-0.8-1.2c-0.3-0.7-0.9-2.9-2-6.7C139.7,85,139.1,82.8,139.2,82.5z"/>
	</g>
</g>
<g>
	<g>
		<path class="st0" d="M327.4,80.1c0.4,0.2,0.8,1.2,1.1,3.1c0.3,1.9,0.5,4.4,0.7,7.5c0,0.7,0.1,1.8,0.2,3.3c0.7-0.5,2-1.7,4-3.3
			c2.3-1.8,3.9-3.1,4.8-3.6c1-0.6,1.7-0.7,2.2-0.5c0.5,0.2,0.7,0.5,0.7,0.7c0.1,1.1-1.1,4.4-3.7,10.1c-0.9,2-1.5,3.4-1.9,4
			c-0.1,0.2-0.1,0.3-0.2,0.3c-0.3,0.5-0.6,0.8-1,0.9c-0.3,0.1-0.6,0.1-0.9,0c-0.1-0.1-0.3-0.2-0.4-0.3c-0.3-0.3-0.3-0.8-0.1-1.4
			c0.2-0.6,0.9-2.2,2.1-4.8c1.4-2.9,2.1-4.5,2.1-4.9c0-0.2-0.4,0-1.1,0.5c-2,1.4-4,3.1-6.1,5.2c-0.8,0.8-1.5,1.3-2,1.5
			c-0.6,0.2-1,0.2-1.2-0.2c-0.2-0.4-0.3-1-0.1-1.9c0.1-0.6,0.2-2.4,0.1-5.4s-0.2-4.7-0.3-5.3c-0.1-0.3-0.2-0.3-0.5,0
			c-0.3,0.4-1,1.9-2.2,4.6c-1.1,2.3-1.8,3.8-2.2,4.4c-0.4,0.6-0.7,0.9-0.9,1c-0.3,0.1-0.4,0.1-0.5,0c-0.1-0.1-0.2-0.3-0.3-0.6
			c-0.2-0.6,0-1.5,0.5-3c0.5-1.4,1.5-3.6,3-6.7c0.3-0.7,0.7-1.4,1-2c1.1-2.2,1.8-3.3,2.1-3.4C326.7,79.9,327.1,79.9,327.4,80.1z"/>
	</g>
</g>
</svg>
