<?xml version="1.0" encoding="utf-8"?>
<!-- Generator: Adobe Illustrator 26.3.1, SVG Export Plug-In . SVG Version: 6.00 Build 0)  -->
<svg version="1.1" id="Layer_1" xmlns="http://www.w3.org/2000/svg" xmlns:xlink="http://www.w3.org/1999/xlink" x="0px" y="0px"
	 viewBox="0 0 478 412" style="enable-background:new 0 0 478 412;" xml:space="preserve">
<g id="efLk3U.tif">
	<g>
		<g>
			<path d="M259.6,211.7c-0.9-2.2-2-4.3-2.5-6.5c-6.6-28.1-13-56.4-19.9-84.4c-1.3-5.3-3.9-10.7-7.3-15.1
				c-15.3-19.9-31.2-39.4-46.6-59.3c-3.2-4.1-6.2-4.9-11.3-3.4c-26.2,7.7-52.4,15.2-78.7,22.5c-5.2,1.4-7.1,3.6-6.7,8.9
				c2.1,28.8,3.9,57.6,5.5,86.4c0.3,5.3,2.1,9.6,5.7,13.7c16.9,19.2,33.7,38.5,50.5,57.8c0.9,1,2.1,2,2.7,3.2
				c0.8,1.6,1.1,3.4,1.7,5.1c-1.8-0.7-4.3-0.8-5.4-2.1c-12.4-14-24.5-28.1-36.7-42.2c-2.6-3-5.3-5.9-8-8.9c-0.7,0.4-1.3,0.8-2,1.2
				c0.6,1.8,1.6,3.6,1.7,5.4c0.2,2.7,0.7,7.1-0.6,7.7c-2.3,1.2-6.6,1.2-8.8-0.2c-4.7-2.9-8.6-7-12.9-10.6c-0.6-0.5-1.3-0.8-2.7-1.7
				c-2.5,3.2-5.4,6-7.1,9.3c-0.7,1.3,0.5,4.3,1.8,5.7c13.9,15.3,28,30.3,42,45.5c1.8,2,3.3,4.2,5.1,6.4c-10.3,4.3-20,8.3-31.2,12.9
				c5.4-8.3,14.5-11.1,20.4-17.3c-10.7,0.5-18.5,7.1-28.8,11.9c4.6-10.9,14.8-13.1,21.3-19.7c-10.1,0.2-17.6,6.4-25.9,11.2
				c4.4-8.2,11.5-13.5,19.7-17.7c0-0.6,0.1-1.1,0.1-1.7c-1.7-0.5-3.9-2-5-1.4C78,240.3,67,246.6,63.2,259.8
				c-1.9,6.7,0.2,11.5,7.2,12.1c9.5,0.9,19.9,1.9,28.7-0.7c28.5-8.4,56.4-18.3,84.5-27.8c4.6-1.6,8.8-3.7,13.2,0.8
				c2.6,2.7,4.8,1,5.3-2.3c0.5-3.4,1.7-5.7,5.6-6.7c34-8.9,68.4-14.7,103.5-17.1c6.2-0.4,13.7-2.8,17.9,4.9c0.2,0.3,3-0.6,4.5-1.1
				c2.3-0.9,4.6-3,6.8-2.9c43.9,2.3,83.4,15.2,115.4,45.5c0.6,0.5,1.3,1,1.7,1.7c1.2,2.1,2.4,4.2,3.5,6.4c-2.5,0.8-4.9,1.8-7.5,2.2
				c-8.6,1.2-17.2,2-25.8,3.2c-5.4,0.8-6.9,3.4-6.1,9c1.8,11.5,2.4,23.2,3.4,34.9c0.1,1.5-0.5,4-1.5,4.5c-1.1,0.5-3.4-0.4-4.8-1.2
				c-6.6-3.8-13.4-7.4-19.6-11.8c-3.2-2.2-5.7-5.6-7.7-9c-1.7-3-3.6-3.2-5.7-1.3c-3.1,2.8-6.1,1.9-9.6,0.9
				c-12.5-3.4-25-6.5-37.5-9.9c-4.8-1.3-8.2-0.3-11.7,3.4c-22.5,23.8-45.4,47.3-67.8,71.1c-4.3,4.6-7.7,5.5-12.3,1
				c-8.2-8.1-17.6-10.3-28.4-5c-1.2,0.6-2.8,0.5-4.1,1.1c-5.4,2.3-9,0.4-12.5-3.7c-9-10.5-18.7-20.5-27.5-31.2
				c-3.9-4.8-7-4.5-12.2-2.2c-13.5,6.1-27.3,11.9-41.2,17.2c-4.8,1.8-10.3,2.3-15.5,2.5c-16.3,0.9-24.8-3.1-30.3-18
				c-6.6-18.1-11.3-37-16.1-55.7c-4.2-16.2,1.4-28.3,16.1-37.5c3.9-2.4,7.8-4.8,12.6-7.8c-4.3-4.8-8.3-9.2-12.2-13.6
				c-1.2-1.3-2.3-2.7-3.7-3.9c-8.4-6.9-11.3-15.7-11.8-26.3c-1-22.8-3.4-45.5-4.9-68.3c-0.2-3.5,0.7-7.4,2.3-10.5
				C64.4,94.1,71.6,81.4,79.2,69c1.8-2.9,5.2-5.7,8.4-6.7c28.3-8.4,56.8-16.2,85-24.5c6.3-1.9,9.9-0.4,13.8,4.5
				c15.8,20.5,32.1,40.7,48.2,61c0.9,1.1,1.6,2.2,2.8,3.9c7.7-6.8,14.7-13,21.7-19.1c16.4-14.6,32.8-29.1,49-43.8
				c3.8-3.4,7.1-4,12-2.4c27.2,9.1,54.5,17.8,81.7,27c2.8,1,6,3.7,7.1,6.3c6.4,14.5,12.3,29.3,18.2,44c0.8,2.1,1.3,4.6,1,6.8
				c-3.6,24.7-7.3,49.4-11.2,74.1c-0.3,2.2-1.4,4.6-2.9,6.2c-4.3,4.7-8.9,9.1-13.5,13.4c-1.1,1-3,1.1-4.6,1.6
				c0.4-1.6,0.4-3.7,1.4-4.9c2.6-3,5.9-5.4,8.3-8.5c1.1-1.5,1.8-4.5,1-6c-4.3-7.7-9.1-15.2-14.3-23.5c-1.9,1.9-3.5,3.3-4.7,4.9
				c-6.7,8.5-13.3,17.2-20.2,25.7c-1.1,1.3-3.5,1.6-5.2,2.4c0.4-1.7,0.4-3.8,1.4-5.2c7.1-9.3,14.5-18.3,21.4-27.7
				c2.3-3.2,4.2-7.2,4.7-11.1c3.6-29.2,6.8-58.5,10.4-87.8c0.6-4.9-1-6.8-5.7-8.3c-25-8-49.9-16.3-74.8-24.6
				c-3.8-1.3-6.2-0.7-9.2,1.9c-21.4,19.4-43,38.6-64.7,57.7c-3.9,3.4-5.2,6.5-4,11.6c6.9,28.5,13.5,57.1,20,85.6
				c0.6,2.4,0.5,5,0.8,7.5C261.6,211.4,260.6,211.6,259.6,211.7z M207.2,307.7c7.2,8.7,13,15.8,19.2,22.7c0.8,0.9,3.5,1.2,4.9,0.7
				c15.5-4.6,30.8-9.5,46.3-14.2c3.1-1,4.1-2.6,3.2-5.7c-1.4-4.9-2.9-9.8-3.7-14.7c-0.7-4.4-3-5.6-7.1-4.6c-3.8,0.9-6.3-0.1-8.1-3.9
				c-1.8-3.8-5.3-3.7-6.3,0.2c-1.6,6.5-6.4,7.5-11.8,9C232,300.2,220.5,303.8,207.2,307.7z M65.9,192.3c0.6,0.2,1.2,0.4,1.8,0.6
				c5.3-6.7,10.5-13.6,16.1-20.2c2.8-3.3,2.7-5.9,0.3-9.3c-10.3-14.7-17-30.5-14.4-48.9c0.6-4.4-0.7-9.1-1.3-15.1
				c-7.7,9.6-8.8,12.7-8.2,20.7c1.3,16.5,2.6,33,3.9,49.5C64.6,177.2,65.3,184.8,65.9,192.3z M406.3,82.3c-0.6,0.1-1.3,0.2-1.9,0.3
				c-2.1,19-4.3,38-6.3,56.9c-0.3,2.9,0.1,5.9,0.7,8.7c1,5,8.5,10.9,13.8,10.4c2.1-0.2,5.4-2.2,5.8-3.9c1.9-8.4,3-17,4.4-25.5
				c-3,2-4.3,4.7-6.5,6.5c-1.8,1.4-5.1,2.8-6.9,2.2c-1.8-0.6-3.6-4-3.5-6c0.8-11.4,1.3-23,3.7-34.2C411,91.2,408.3,87.2,406.3,82.3z
				 M206.1,358.5c5.5-8,10.4-14.9,14.9-22c0.6-1-0.1-3.5-1-4.6c-4.8-6.3-9.9-12.3-15-18.4c-0.8-1-2.2-1.5-3.4-2.2
				c-0.4,0.4-0.8,0.7-1.1,1.1c3.4,4.4,6.8,8.9,10.2,13.3c-0.7,0.5-1.3,1-2,1.5c-4.8-4.5-9.5-9-14.3-13.6c-0.6,0.6-1.2,1.2-1.8,1.8
				c1.2,1.4,2.3,2.9,3.5,4.3c3,3.4,6.3,6.7,8.9,10.3c2.4,3.4,6.4,7.7,2.1,11.4c-4.6,4-8.8-0.5-12-3.4c-4.7-4.3-8.7-9.2-13.3-13.6
				c-1.3-1.3-3.6-1.7-5.4-2.6c-0.4,0.7-0.8,1.3-1.1,2C185.3,335.1,195.4,346.4,206.1,358.5z M367.4,270.4c-0.2,0.1-0.4,0.1-0.6,0.2
				c-0.1,0.8-0.5,1.9-0.1,2.3c1.4,1.4,2.9,3.1,4.7,3.7c1.7,0.6,3.8-0.1,5.8-0.2c-0.5-1.6-1.5-3.1-1.5-4.7c-0.2-3.8-3.8-7.3,0.3-11.5
				c3.6-3.6,1.2-8.8-4.4-10.2c-5.1-1.2-10.4-1.9-15.6-2.5c-1.1-0.1-2.9,0.6-3.4,1.5c-0.4,0.7,0.5,2.4,1.3,3.3
				c3.3,3.7,1.3,13.5-3.1,15.8c-1.1,0.5-1.7,1.8-2.6,2.7c1,0.8,1.9,2.1,3,2.4c2.7,0.7,5.5,1.3,8.4,1.4c1.6,0.1,3.2-0.7,4.9-1.1
				c-0.6-1.2-1.4-2.4-1.8-3.7c-0.4-1.3-0.6-2.7-0.9-4c1.5,0,3.5-0.6,4.2,0.1C366.9,266.9,367,268.8,367.4,270.4z M228.6,253.8
				c-5.5,1.3-11.2,2.6-16.8,4.1c-0.9,0.2-2.2,1.8-2,2.4c0.3,1,1.4,2.1,2.5,2.6c4.8,2.2,7.3,11.4,4.2,15.6c-0.7,0.9-1.4,2.8-0.9,3.4
				c0.6,0.8,2.4,1.3,3.6,1.1c3-0.4,5.9-1.2,8.8-2.1c1.2-0.4,2.1-1.5,3.2-2.3c-1-1-1.9-2-2.9-3c-0.9-1.1-2-2.1-2.7-3.3
				c-0.1-0.2,1.4-1.9,1.8-1.8c1.6,0.5,3.2,1.2,4.4,2.2c0.6,0.5,0.3,2.1,0.9,2.7c1.5,1.3,3.3,3,5,3c2.1,0,4.3-1.6,6.4-2.6
				c-1.3-1.3-3.2-2.4-3.7-3.9c-1.2-3.5-6.4-5.1-4.3-10.4C237.8,257.4,233.8,253.7,228.6,253.8z M335.7,252.3
				c1.8,1.6,3.7,3.3,5.5,4.9c0.7-2.5,1.9-5,1.9-7.4c0-1.2-2-3.4-3.3-3.6c-6.4-0.7-12.9-1-19.4-1.2c-1.1,0-2.3,1.1-3.4,1.7
				c0.6,1.1,1,2.4,1.9,3.1c3.3,2.9,3,13.4-0.6,15.9c-1.1,0.8-1.8,2-2.7,3.1c1.5,0.7,2.9,2,4.4,2.1c4.8,0.5,9.7,0.4,14.5,0.9
				c8.1,0.8,8.2,1,8.3-6.9c0-1.6-1.4-3.2-2.1-4.7c-1.2,1.2-3.1,2.2-3.5,3.6c-1.4,4.4-4.8,3.3-7.4,2.4c-1.2-0.4-1.4-3.3-2.1-5
				c0.6-0.3,1.3-0.6,1.9-0.9c0.8,1.5,1.6,3.1,2.4,4.6c0.7-0.3,1.4-0.7,2.1-1c0-3.7,0-7.4,0-11.7c-1.8,1.1-3.3,2-4.8,2.9
				C329.4,248.8,333.3,250.7,335.7,252.3z M265.5,252.6c0,0.5,0,1.1-0.1,1.6c2.2,1,4.4,1.9,6.6,2.9c0-2.8,0.3-5.6-0.3-8.3
				c-0.2-0.9-2.8-2.1-4.1-1.9c-6.2,0.7-12.4,1.6-18.6,2.8c-1.3,0.2-2.3,1.7-3.4,2.6c0.9,0.9,1.7,2,2.8,2.6c4,2.2,5.7,12.5,2.6,15.7
				c-0.9,0.9-1.3,2.4-1.9,3.6c1.4,0.4,2.9,1.3,4.3,1.2c5.2-0.6,10.4-2,15.6-2.2c6-0.2,8.1-2.5,6.1-7.9c-0.6-1.7-2.2-3.1-3.3-4.7
				c-0.9,1.4-1.5,3.2-2.7,4.3c-1.8,1.6-3.8,3.2-6.1,3.8c-0.8,0.2-2.4-2.5-3.7-3.9c0.5-0.4,0.9-0.8,1.4-1.2c1.5,0.8,3,1.7,6.3,3.5
				c-1-5.4-1.8-9.2-2.8-14.5c-1.9,2.2-2.4,2.7-2.8,3.3c-0.5,0.6-1.1,1.3-1.9,2.2C258.6,252.9,258.6,252.9,265.5,252.6z M417.5,164.6
				c-7.8-2.9-14.2-5.3-20.7-7.7c-4.7,10.5-1.6,22.5,8.7,31.8c1.8-5.2,3.4-10.3,5.1-15.4c0.9,0.3,1.9,0.6,2.8,0.9
				c-0.9,4.1-1.7,8.1-2.7,12.2c-2.1,8.5-2.1,8.5,1.4,12.4C414.1,186.4,415.9,175,417.5,164.6z M85.9,159.3c2-11.5,0.2-19.3-5-27.1
				c-7.2-10.8-7.3-22.8-1.2-33.4c4.4-7.7,2.4-14.1,1.1-21.4c-3.3,6.5-10,11.2-9.1,19.6c0.9,8.7,1.4,17.4,1.4,26.1
				C73.1,136.2,78.3,147.2,85.9,159.3z M237.9,335.2c-6.2,3-6.1,4.6-1.3,8.8c7.2,6.2,14.8,7.4,23.4,3.7c3.2-1.4,7.8-2.1,9.3-4.6
				c3.9-6,6.4-12.9,9.9-20.2c-9.9,1.6-9.7,1.7-12.3,8.9c-0.9,2.4-2.7,5-4.8,6.3C255.7,342,243.4,340.3,237.9,335.2z M170,272.3
				c-7.1,3.1-14,5.9-20.7,9c-1,0.5-2,2.1-1.9,3c0.1,0.8,1.8,1.7,3,2c5,1.2,9.5,10.5,7.1,15c-0.5,1-0.8,2.9-0.3,3.5
				c0.7,0.7,2.6,0.9,3.7,0.5c2.8-1,5.7-2.2,8.2-3.7c1.6-1,2.8-2.7,4.2-4.2c-1.7-0.4-3.5-0.6-4.9-1.3c-1.4-0.7-2.5-2-3.6-3.1
				c-0.2-0.2,0.3-1,0.4-1.5c1.7,0.5,3.3,1,4.9,1.5c0.4-0.3,0.9-0.7,1.3-1c-1.9-3.6-3.7-7.1-5.6-10.7c-0.6,0.2-1.1,0.3-1.7,0.5
				c-0.5,1.4-1,2.9-1.5,4.3c-0.6-0.1-1.2-0.3-1.8-0.4c0.3-1.4,0.3-4,1-4.1c2.1-0.5,4.5-0.4,6.8-0.1c1.7,0.3,3.2,1.3,4.8,2
				c0-1.8,0.4-3.6-0.1-5.2C172.6,276.2,171.2,274.4,170,272.3z M181.5,275.4c0,8.4,6.1,15.5,13.2,15.6c7.4,0.1,13.2-5,13.4-11.6
				c0.2-8.6-6.2-16-13.6-15.9C187,263.6,181.6,268.5,181.5,275.4z M298.2,260.7c-0.9,0.1-1.8,0.2-2.7,0.2c-1.4-3.7-5.1-6.9-1.8-11.6
				c0.5-0.8-0.2-3.4-0.5-3.4c-4-0.2-8-0.2-12,0.1c-0.6,0-1.5,1.7-1.5,2.7c0,0.7,1.2,1.3,1.8,2.1c1.4,1.7,3.2,3.3,4.2,5.2
				c1.6,3.2,2.5,6.6,3.8,9.8c1.2,3.1,2.9,6.3,6.8,4.9c2.3-0.8,4.5-3.2,5.8-5.4c3.1-5.4,1.4-13,8.3-16.7c0.4-0.2,0.8-1.2,0.6-1.5
				c-0.4-0.8-1.1-2.1-1.7-2.1c-4,0.1-7.9,0.4-11.9,0.8c-0.3,0-0.7,1.7-0.6,2.6C297.2,252.5,297.7,256.6,298.2,260.7z M301.7,316.5
				c-9.4-5.1-9.9-7.9-3.3-15.7c2.6-3,5-6.1,7.6-9.2c-0.5-0.7-1.1-1.3-1.6-2c-2.2,1.1-4.9,1.7-6.6,3.3c-3.2,2.9-6.3,6.2-8.5,9.8
				c-1.7,2.7-2.1,6.2-2.7,9.4c-0.7,3.9-0.4,8-1.6,11.7c-1.8,5.2-4.6,10-7,15c0.5,0.3,1,0.6,1.4,0.8
				C286.6,332.2,293.9,324.6,301.7,316.5z M220,347.3c1.8,2.2,3.1,3.9,5.5,7c-7.4-1.9-11.7-0.9-13,6.5c9.4-2.6,18.3-5,28.1-7.7
				c-5.2-4.9-9.6-9-14.6-13.7C224.5,341.3,222.4,344.2,220,347.3z M409.5,134.9c11.9-7.1,12.8-23.9,3.8-33.1
				C412.1,112.3,410.9,122.8,409.5,134.9z M315.3,292.1c-0.3-0.4-0.6-0.8-1-1.1c-1.6,0.9-3.6,1.6-4.8,2.9c-3.2,3.5-6.3,7.1-9.1,10.9
				c-1,1.3-1.2,3.1-1.8,4.6c1.9,0.3,3.9,1.1,5.5,0.7c9.5-2.5,12.9-11.2,19.3-16.8c-0.4-0.4-0.9-0.9-1.3-1.3
				c-3.2,3.4-6.4,6.8-9.5,10.2c-0.7-0.5-1.3-0.9-2-1.4C312.3,297.8,313.8,295,315.3,292.1z M99.5,183.8c-7,0.4-12.6,0.7-18.2,1
				c2.6,6.5,11.3,13.7,18.1,14.1C98.6,193.8,92.8,188.9,99.5,183.8z M266.1,353.3c-0.4-0.6-0.7-1.1-1.1-1.7
				c-7.7,2.2-15.4,4.5-24.5,7.1c4,2.8,6.5,4.9,9.3,6.2c1.4,0.7,4.2,0.6,5.2-0.3C259,361.1,262.4,357.1,266.1,353.3z M108,311.7
				c-0.2-0.3-0.4-0.5-0.7-0.8c-10.8,1-21.6,1.9-32.5,2.9c0,4.2,1.9,5.9,5.7,5.4c6-0.8,12.1-1.3,17.9-2.7
				C101.8,315.7,104.8,313.3,108,311.7z M103.4,285.7c-0.2-0.4-0.4-0.9-0.7-1.3c-11.4,0-22.7,0-36.4,0c2.8,2.3,4.4,4.8,6.2,4.9
				c6.2,0.4,12.5,0.5,18.7-0.1C95.4,288.7,99.4,286.9,103.4,285.7z M105.4,298.5c-11,0-20.4-0.1-29.9,0.1c-1.4,0-2.9,1.3-4.3,1.9
				c1.3,1.2,2.7,3.4,4,3.4c6.3,0,12.6-0.2,18.7-1.2C97.7,302.2,101.2,300.1,105.4,298.5z M183.1,319.6c6,7.1,11.6,14.4,20.7,19.7
				C202.2,328.8,189,316.4,183.1,319.6z M109.4,324.4c-10.6,1.4-20.5,2.7-30.6,4C83,335.2,99.9,333.1,109.4,324.4z M86,339.4
				c5.7,6.4,18.9,4,24.8-4.4C102.4,336.5,94.3,337.9,86,339.4z M263.2,327.2c-6,1.8-11.2,3.3-16.2,5c-1,0.4-1.7,1.8-2.5,2.7
				c1.3,0.5,2.7,1.4,4,1.4c3-0.1,5.9-0.8,8.9-1C262.2,335.1,263.3,332.4,263.2,327.2z M85.2,129.6c-0.5-9.7-1-18.1-1.4-26.5
				C78.2,110.1,79,122.9,85.2,129.6z M282.9,298.8c0.6,0.1,1.3,0.2,1.9,0.3c2.1-2.4,4.1-4.9,6.2-7.3c-0.3-0.5-0.5-1.1-0.8-1.6
				c-2.7,0.6-6,0.4-7.8,1.9C281.4,293,282.7,296.5,282.9,298.8z M94,180.5c0.2-0.6,0.4-1.2,0.7-1.8c-1.4-1.7-2.9-3.4-4.8-5.6
				c-1.9,2.6-3.3,4.5-4.8,6.4c0.2,0.5,0.5,1,0.7,1.5C88.5,180.8,91.2,180.6,94,180.5z"/>
		</g>
		<g>
			<path d="M142.1,251.3c-1.6-1.3-3.2-2.6-4.6-4.1c-8.4-8.7-16.5-17.7-25-26.2c-2.8-2.8-6.4-8.3-10.7-4.4c-4.4,3.9,1.1,7.6,3.8,10.7
				c6.8,7.5,13.9,14.7,20.8,22.1c1,1.1,1.7,2.6,2.5,3.9c-0.5,0.4-1,0.9-1.4,1.3c-1.5-1-3.2-1.7-4.4-2.9c-7.7-8-15.3-16-22.9-24.1
				c-1.2-1.3-2.9-2.9-2.9-4.3c0.1-3.4-0.1-7.9,2-10c1.6-1.6,6.8-1,9.8,0.2c3,1.1,5.5,3.9,7.8,6.3c8.1,8.4,16.1,17,24,25.5
				c1.3,1.4,2.1,3.2,3.2,4.8C143.4,250.3,142.7,250.8,142.1,251.3z"/>
		</g>
		<g>
			<path d="M390.1,213.5c1.1-1.8,2.4-3.6,3.2-5.5c0.9-2.3,1.3-4.8,1.9-7.3c-2.6,0.9-5.6,1.3-7.7,2.9c-3.1,2.4-5.6,5.6-8.4,8.3
				c-0.8,0.7-1.9,1.1-2.9,1.7c-0.6-0.8-1.3-1.6-1.2-1.7c5.4-5.3,10.5-10.7,16.4-15.5c1.2-1,5.7-0.1,7,1.3c1.5,1.7,2.2,5.3,1.4,7.4
				c-1.5,3.6-4.5,6.7-6.9,10C391.8,214.6,391,214.1,390.1,213.5z"/>
		</g>
		<g>
			<path d="M132.9,251.1c-5.9-5.7-11.7-11.4-17.6-17.1C121.5,233.2,133.5,244.9,132.9,251.1z"/>
		</g>
		<g>
			<path d="M125,223.9c-3.7-4.1-7.4-8.3-12-13.3c6.3,0.2,12.6,6.7,13.5,12.1C126,223,125.5,223.4,125,223.9z"/>
		</g>
		<g>
			<path d="M74.5,204.4c6.7-0.4,13.5,6,13,12.1C83.5,212.8,79.6,209.1,74.5,204.4z"/>
		</g>
		<g>
			<path d="M68.9,143.1c-4.4,6.7,3,26.2,10.1,27.8C75.7,161.8,72.5,152.8,68.9,143.1z M63.1,127.9c0.9-0.1,1.8-0.1,2.6-0.2
				c0.8-4.8,1.7-9.7-0.8-14.3c-0.9,0.1-1.7,0.1-2.6,0.2C62.6,118.4,62.9,123.1,63.1,127.9z M69.8,180.1c1.1-0.3,2.3-0.7,3.4-1
				c-1.2-3.7-2.5-7.4-3.7-11.1c-1,0.3-2,0.6-2.9,0.9C67.6,172.6,68.7,176.3,69.8,180.1z"/>
		</g>
		<g>
			<path d="M402.8,137.8c-3.4,3.9-1.6,7,1,9.4c1.3,1.2,3.9,1.3,5.9,1.9c0.1-0.5,0.2-1,0.3-1.5C407.7,144.5,405.5,141.4,402.8,137.8z
				"/>
		</g>
		<g>
			<path d="M367.4,270.4c-0.5-1.6-0.5-3.5-1.5-4.6c-0.7-0.7-2.8-0.1-4.2-0.1c0.3,1.3,0.4,2.7,0.9,4c0.4,1.3,1.2,2.5,1.8,3.7
				c-1.6,0.4-3.3,1.2-4.9,1.1c-2.8-0.2-5.6-0.7-8.4-1.4c-1.2-0.3-2-1.6-3-2.4c0.8-0.9,1.5-2.2,2.6-2.7c4.4-2.3,6.3-12.1,3.1-15.8
				c-0.8-0.9-1.7-2.6-1.3-3.3c0.5-0.9,2.3-1.6,3.4-1.5c5.2,0.6,10.5,1.3,15.6,2.5c5.6,1.3,8,6.5,4.4,10.2c-4.1,4.1-0.5,7.7-0.3,11.5
				c0.1,1.6,1,3.2,1.5,4.7c-1.9,0.1-4.1,0.8-5.8,0.2c-1.8-0.6-3.3-2.3-4.7-3.7c-0.4-0.4,0.1-1.5,0.1-2.3
				C367,270.5,367.2,270.4,367.4,270.4z"/>
		</g>
		<g>
			<path d="M228.6,253.8c5.1-0.1,9.1,3.5,7.5,7.7c-2.1,5.2,3,6.9,4.3,10.4c0.6,1.5,2.5,2.6,3.7,3.9c-2.1,0.9-4.2,2.5-6.4,2.6
				c-1.7,0-3.5-1.8-5-3c-0.6-0.5-0.3-2.2-0.9-2.7c-1.3-1-2.8-1.8-4.4-2.2c-0.4-0.1-2,1.5-1.8,1.8c0.7,1.2,1.7,2.2,2.7,3.3
				c0.9,1,1.9,2,2.9,3c-1.1,0.8-2,1.9-3.2,2.3c-2.9,0.9-5.8,1.6-8.8,2.1c-1.2,0.2-3-0.3-3.6-1.1c-0.5-0.6,0.2-2.4,0.9-3.4
				c3.1-4.1,0.6-13.3-4.2-15.6c-1.1-0.5-2.2-1.6-2.5-2.6c-0.2-0.6,1.1-2.2,2-2.4C217.4,256.4,223.1,255.1,228.6,253.8z"/>
		</g>
		<g>
			<path d="M335.7,252.3c-2.5-1.6-6.3-3.5-6.4,2.7c1.5-0.9,3-1.8,4.8-2.9c0,4.3,0,8,0,11.7c-0.7,0.3-1.4,0.7-2.1,1
				c-0.8-1.5-1.6-3.1-2.4-4.6c-0.6,0.3-1.3,0.6-1.9,0.9c0.7,1.7,0.9,4.6,2.1,5c2.6,0.9,6,2,7.4-2.4c0.4-1.4,2.3-2.4,3.5-3.6
				c0.7,1.6,2.1,3.2,2.1,4.7c-0.1,7.8-0.2,7.7-8.3,6.9c-4.8-0.5-9.7-0.4-14.5-0.9c-1.5-0.2-3-1.4-4.4-2.1c0.9-1,1.6-2.3,2.7-3.1
				c3.5-2.5,3.9-13,0.6-15.9c-0.9-0.8-1.3-2.1-1.9-3.1c1.1-0.6,2.3-1.7,3.4-1.7c6.5,0.2,13,0.5,19.4,1.2c1.3,0.1,3.3,2.3,3.3,3.6
				c0,2.5-1.2,5-1.9,7.4C339.4,255.6,337.6,254,335.7,252.3z"/>
		</g>
		<g>
			<path d="M265.5,252.6c-6.9,0.3-6.9,0.3-5.9,5.3c0.8-1,1.3-1.6,1.9-2.2c0.5-0.6,1-1.1,2.8-3.3c1,5.3,1.7,9,2.8,14.5
				c-3.3-1.8-4.8-2.7-6.3-3.5c-0.5,0.4-0.9,0.8-1.4,1.2c1.2,1.4,2.9,4.1,3.7,3.9c2.2-0.6,4.3-2.2,6.1-3.8c1.2-1.1,1.8-2.8,2.7-4.3
				c1.1,1.6,2.6,3,3.3,4.7c2,5.4-0.1,7.7-6.1,7.9c-5.2,0.2-10.4,1.6-15.6,2.2c-1.4,0.2-2.9-0.8-4.3-1.2c0.6-1.2,1-2.6,1.9-3.6
				c3.1-3.2,1.4-13.5-2.6-15.7c-1.1-0.6-1.9-1.7-2.8-2.6c1.1-0.9,2.2-2.4,3.4-2.6c6.1-1.2,12.3-2.1,18.6-2.8c1.3-0.1,3.9,1,4.1,1.9
				c0.6,2.7,0.2,5.5,0.3,8.3c-2.2-1-4.4-1.9-6.6-2.9C265.5,253.7,265.5,253.2,265.5,252.6z"/>
		</g>
		<g>
			<path d="M170,272.3c1.2,2.1,2.5,3.9,3.1,5.8c0.5,1.6,0.1,3.5,0.1,5.2c-1.6-0.7-3.1-1.7-4.8-2c-2.2-0.4-4.6-0.4-6.8,0.1
				c-0.6,0.2-0.7,2.7-1,4.1c0.6,0.1,1.2,0.3,1.8,0.4c0.5-1.4,1-2.9,1.5-4.3c0.6-0.2,1.1-0.3,1.7-0.5c1.9,3.6,3.7,7.1,5.6,10.7
				c-0.4,0.3-0.9,0.7-1.3,1c-1.6-0.5-3.1-1-4.9-1.5c-0.2,0.5-0.6,1.3-0.4,1.5c1.1,1.1,2.2,2.4,3.6,3.1c1.5,0.8,3.3,0.9,4.9,1.3
				c-1.4,1.4-2.5,3.2-4.2,4.2c-2.6,1.5-5.4,2.7-8.2,3.7c-1.1,0.4-3,0.2-3.7-0.5c-0.6-0.6-0.3-2.5,0.3-3.5c2.4-4.4-2-13.8-7.1-15
				c-1.1-0.3-2.9-1.2-3-2c-0.1-1,0.9-2.6,1.9-3C156,278.2,162.9,275.4,170,272.3z"/>
		</g>
		<g>
			<path d="M181.5,275.4c0-6.9,5.4-11.8,13-11.9c7.4-0.1,13.8,7.3,13.6,15.9c-0.1,6.6-6,11.7-13.4,11.6
				C187.6,290.9,181.5,283.7,181.5,275.4z M203,279.2c-3.7-3.9-6.6-6.9-9.5-9.8c-1.5,1.7-4.1,3.3-4.3,5.1
				c-0.6,5.3,3.8,11.1,7.3,10.2C198.5,284.2,199.9,281.9,203,279.2z"/>
		</g>
		<g>
			<path d="M298.2,260.7c-0.5-4.1-1-8.2-1.4-12.3c-0.1-0.9,0.3-2.5,0.6-2.6c3.9-0.4,7.9-0.7,11.9-0.8c0.6,0,1.3,1.3,1.7,2.1
				c0.2,0.4-0.2,1.3-0.6,1.5c-6.9,3.7-5.2,11.3-8.3,16.7c-1.3,2.2-3.4,4.6-5.8,5.4c-4,1.4-5.6-1.9-6.8-4.9c-1.3-3.3-2.3-6.7-3.8-9.8
				c-1-1.9-2.7-3.5-4.2-5.2c-0.6-0.7-1.8-1.4-1.8-2.1c0-1,0.9-2.7,1.5-2.7c4-0.3,8-0.3,12-0.1c0.2,0,1,2.6,0.5,3.4
				c-3.2,4.7,0.5,7.9,1.8,11.6C296.4,260.9,297.3,260.8,298.2,260.7z"/>
		</g>
		<g>
			<path d="M83.8,103.1c0.5,8.4,0.9,16.8,1.4,26.5"/>
		</g>
		<g>
			<path d="M63.1,127.9c-0.3-4.8-0.5-9.5-0.8-14.3c0.9-0.1,1.7-0.1,2.6-0.2c2.5,4.6,1.6,9.5,0.8,14.3
				C64.9,127.8,64,127.9,63.1,127.9z"/>
		</g>
		<g>
			<path d="M69.8,180.1c-1.1-3.8-2.2-7.5-3.3-11.3c1-0.3,2-0.6,2.9-0.9c1.2,3.7,2.5,7.4,3.7,11.1C72.1,179.4,70.9,179.8,69.8,180.1z
				"/>
		</g>
		<g>
			<path d="M203,279.2c-3,2.7-4.5,5-6.4,5.5c-3.5,0.9-7.9-4.9-7.3-10.2c0.2-1.8,2.8-3.4,4.3-5.1C196.4,272.4,199.2,275.3,203,279.2z
				"/>
		</g>
	</g>
</g>
<g>
	<path d="M139.2,84.9c0.1-0.3,0.3-0.5,0.5-0.5c0.3-0.1,0.6,0,0.9,0.3c0.1,0.1,0.3,0.5,0.6,1.2c0.3,0.7,0.6,1.6,1,2.7
		c0.4,1.1,0.8,2.1,1.1,3.2c0.3,1,0.7,2.1,1.1,3.2c0.4,1.1,0.6,1.8,0.7,2.1c0.5-0.2,1.3-0.4,2.4-0.8c3.4-1.1,5.5-1.3,6.3-0.7
		c0.1,0.1,0.2,0.2,0.3,0.3c0.1,0.1,0.1,0.3,0,0.5c-0.1,0.3-0.4,0.6-0.9,0.8c0,0-0.1,0-0.1,0c-0.6,0.2-2.3,0.7-5.1,1.4
		c-2.6,0.7-4,1-4.2,0.8c-0.3-0.1-0.5-0.6-0.8-1.2c-0.3-0.7-0.9-2.9-2-6.7C139.7,87.4,139.1,85.2,139.2,84.9z"/>
</g>
<g>
	<path d="M327.4,82.5c0.4,0.2,0.8,1.2,1.1,3.1c0.3,1.9,0.5,4.4,0.7,7.5c0,0.7,0.1,1.8,0.2,3.3c0.7-0.5,2-1.7,4-3.3
		c2.3-1.8,3.9-3.1,4.8-3.6c1-0.6,1.7-0.7,2.2-0.5c0.5,0.2,0.7,0.5,0.7,0.7c0.1,1.1-1.1,4.4-3.7,10.1c-0.9,2-1.5,3.4-1.9,4
		c-0.1,0.2-0.1,0.3-0.2,0.3c-0.3,0.5-0.6,0.8-1,0.9c-0.3,0.1-0.6,0.1-0.9,0c-0.1-0.1-0.3-0.2-0.4-0.3c-0.3-0.3-0.3-0.8-0.1-1.4
		c0.2-0.6,0.9-2.2,2.1-4.8c1.4-2.9,2.1-4.5,2.1-4.9c0-0.2-0.4,0-1.1,0.5c-2,1.4-4,3.1-6.1,5.2c-0.8,0.8-1.5,1.3-2,1.5
		c-0.6,0.2-1,0.2-1.2-0.2c-0.2-0.4-0.3-1-0.1-1.9c0.1-0.6,0.2-2.4,0.1-5.4s-0.2-4.7-0.3-5.3c-0.1-0.3-0.2-0.3-0.5,0
		c-0.3,0.4-1,1.9-2.2,4.6c-1.1,2.3-1.8,3.8-2.2,4.4c-0.4,0.6-0.7,0.9-0.9,1c-0.3,0.1-0.4,0.1-0.5,0c-0.1-0.1-0.2-0.3-0.3-0.6
		c-0.2-0.6,0-1.5,0.5-3c0.5-1.4,1.5-3.6,3-6.7c0.3-0.7,0.7-1.4,1-2c1.1-2.2,1.8-3.3,2.1-3.4C326.7,82.3,327.1,82.3,327.4,82.5z"/>
</g>
</svg>
