<?xml version="1.0" encoding="UTF-8"?><svg id="_Layer_" xmlns="http://www.w3.org/2000/svg" viewBox="0 0 2156.26 218.85"><defs><style>.cls-1{fill:#ceb27c;}</style></defs><g><path class="cls-1" d="M542.28,135.43c-8.67,0-15.72-7.05-15.72-15.71s7.05-15.71,15.72-15.71,15.72,7.05,15.72,15.71-7.05,15.71-15.72,15.71Zm0-28.53c-7.07,0-12.83,5.75-12.83,12.82s5.75,12.82,12.83,12.82,12.83-5.75,12.83-12.82-5.75-12.82-12.83-12.82Z"/><path class="cls-1" d="M508.82,130.78c-6.1,0-11.06-4.96-11.06-11.06s4.96-11.06,11.06-11.06,11.06,4.96,11.06,11.06-4.96,11.06-11.06,11.06Zm0-19.22c-4.51,0-8.17,3.66-8.17,8.17s3.67,8.17,8.17,8.17,8.17-3.66,8.17-8.17-3.66-8.17-8.17-8.17Z"/><path class="cls-1" d="M487.13,124.94h-30.66c-2.88,0-5.22-2.34-5.22-5.22s2.34-5.22,5.22-5.22h30.66c2.88,0,5.22,2.34,5.22,5.22s-2.34,5.22-5.22,5.22Zm-30.66-7.55c-1.29,0-2.33,1.05-2.33,2.33s1.05,2.33,2.33,2.33h30.66c1.29,0,2.33-1.04,2.33-2.33s-1.05-2.33-2.33-2.33h-30.66Z"/><path class="cls-1" d="M564.64,159.49c-4.73,0-9.35-.82-13.75-2.44l-3.68-1.36,3.68-1.36c14.44-5.32,24.14-19.23,24.14-34.62s-9.7-29.3-24.14-34.62l-3.68-1.36,3.68-1.36c4.4-1.62,9.03-2.44,13.75-2.44,21.94,0,39.79,17.84,39.79,39.77s-17.85,39.77-39.79,39.77Zm-9.08-4.01c2.95,.75,5.99,1.12,9.08,1.12,20.34,0,36.9-16.54,36.9-36.88s-16.55-36.88-36.9-36.88c-3.08,0-6.12,.38-9.08,1.12,13.52,6.6,22.35,20.51,22.35,35.76s-8.84,29.15-22.35,35.76Z"/><path class="cls-1" d="M325.57,150.83c-1.35,0-2.69-.37-3.89-1.1l-38.84-23.84h-37.94l-38.84,23.84c-2.4,1.47-5.38,1.47-7.78,0l-39.07-23.98c-2.19-1.34-3.55-3.77-3.55-6.34s1.36-4.99,3.55-6.34l39.07-23.98c2.4-1.47,5.38-1.47,7.78,0l38.84,23.84h37.93l38.84-23.84c2.4-1.47,5.38-1.47,7.78,0l38.84,23.84h49.97c3.57,0,6.48,2.91,6.48,6.48s-2.91,6.48-6.48,6.48h-49.97l-38.84,23.84c-1.2,.74-2.55,1.1-3.89,1.1Zm-41.42-27.53l39.04,23.96c1.47,.9,3.29,.9,4.76,0l39.07-23.98h0s.03-.03,.07-.05l.36-.23h50.83c1.98,0,3.59-1.61,3.59-3.59s-1.61-3.59-3.59-3.59h-50.8l-.51-.33-39.01-23.94c-1.47-.9-3.29-.9-4.76,0l-39.07,23.98h0s-.05,.04-.12,.08l-.34,.2h-39.58l-.51-.32-39.01-23.94c-1.47-.9-3.29-.9-4.76,0l-39.07,23.98c-1.34,.82-2.17,2.31-2.17,3.87s.83,3.05,2.17,3.87l39.07,23.98c1.47,.9,3.29,.9,4.76,0l39.07-23.98s.02-.02,.07-.05l.36-.23h39.63l.47,.31Zm.02,.02h0Zm41.4,14.73l-30.38-18.65,30.38-18.65,30.38,18.65-30.38,18.65Zm-24.86-18.65l24.86,15.25,24.86-15.25-24.86-15.25-24.86,15.25Zm-98.54,18.65l-30.38-18.65,30.38-18.65,30.38,18.65-30.38,18.65Zm-24.86-18.65l24.86,15.25,24.86-15.25-24.86-15.25-24.86,15.25Z"/><path class="cls-1" d="M62.21,158.17c-15.14,0-30.16-6.58-40.38-19.26-3.74-4.63-6.63-9.82-8.58-15.42l-1.34-3.83,3.46,2.12c17.59,10.77,40.21,9.31,56.27-3.64,16.06-12.95,22.28-34.73,15.48-54.2l-1.34-3.83,3.46,2.12c5.06,3.1,9.52,7.02,13.26,11.65h0c8.69,10.77,12.66,24.27,11.19,38.03-1.47,13.76-8.22,26.11-18.99,34.8-9.56,7.71-21.06,11.45-32.48,11.46Zm-44.77-31.92c1.72,3.88,3.95,7.52,6.63,10.85,16.94,20.99,47.8,24.29,68.79,7.37,10.17-8.2,16.54-19.87,17.93-32.86,1.39-12.99-2.36-25.74-10.56-35.91h0c-2.69-3.33-5.77-6.27-9.2-8.78,5.13,19.56-1.65,40.62-17.59,53.47-15.94,12.85-37.96,15.02-56,5.86Z"/></g><g><path class="cls-1" d="M719.83,164.89c0,5.75,2.96,16.37,8.88,16.37v2.44h-28.39v-2.44c5.92,0,8.88-10.62,8.88-16.37V87.39c0-10.28-4.7-15.85-14.46-15.85v-2.44l25.08-9.4v105.19Z"/><path class="cls-1" d="M859.16,122.39c0,34.66-23.34,63.4-51.9,63.4s-52.07-28.74-52.07-63.4,23.34-62.7,52.07-62.7,51.9,28.04,51.9,62.7Zm-13.06,0c-2.26-31.87-22.29-57.65-43.19-57.65s-37.45,25.78-35.01,57.65c2.09,31.87,22.47,57.82,43.02,57.82s37.62-25.95,35.18-57.82Z"/><path class="cls-1" d="M943.8,53.08l-61.48,143.86h-6.1l60.96-143.86h6.62Z"/><path class="cls-1" d="M1003.53,173.6c9.23,0,29.26-1.74,30.3-9.75h2.44l-1.57,19.85h-78.55c0-46.5,68.62-58.52,68.62-91.26,0-8.88-8.01-26.47-25.95-26.47-12.19,0-25.08,11.15-25.08,26.3,0,6.79-1.22,12.02-5.75,12.02-6.27,0-8.36-3.48-8.36-9.75,0-15.33,15.15-33.96,39.19-33.96s38.84,13.06,38.84,32.22c0,34.31-68.27,50.68-68.27,80.81h34.14Z"/><path class="cls-1" d="M1059.61,100.8c0-22.47,17.59-40.93,41.28-40.93s41.1,16.2,41.1,40.93c0,39.19-31.7,69.84-59.39,87.95l-1.39-3.83c8.01-7.31,29.96-29.61,38.84-48.24-2.96,1.39-10.62,5.05-20.9,5.05-23.69,0-39.54-18.29-39.54-40.93Zm11.67-1.04c0,18.64,15.85,34.66,30.65,34.66,9.58,0,18.81-3.83,21.77-5.92,5.22-11.15,5.57-16.55,5.57-29.43,0-18.46-15.5-33.96-28.21-33.96-14.28,0-29.78,16.37-29.78,34.66Z"/><path class="cls-1" d="M1227.5,53.08l-61.48,143.86h-6.1l60.96-143.86h6.62Z"/><path class="cls-1" d="M1287.23,173.6c9.23,0,29.26-1.74,30.3-9.75h2.44l-1.57,19.85h-78.55c0-46.5,68.62-58.52,68.62-91.26,0-8.88-8.01-26.47-25.95-26.47-12.19,0-25.08,11.15-25.08,26.3,0,6.79-1.22,12.02-5.75,12.02-6.27,0-8.36-3.48-8.36-9.75,0-15.33,15.15-33.96,39.19-33.96s38.84,13.06,38.84,32.22c0,34.31-68.27,50.68-68.27,80.81h34.14Z"/><path class="cls-1" d="M1393.99,173.6c9.23,0,29.26-1.74,30.3-9.75h2.44l-1.57,19.85h-78.55c0-46.5,68.62-58.52,68.62-91.26,0-8.88-8.01-26.47-25.95-26.47-12.19,0-25.08,11.15-25.08,26.3,0,6.79-1.22,12.02-5.75,12.02-6.27,0-8.36-3.48-8.36-9.75,0-15.33,15.15-33.96,39.19-33.96s38.84,13.06,38.84,32.22c0,34.31-68.27,50.68-68.27,80.81h34.14Z"/></g><g><path class="cls-1" d="M1586.11,134.78c-8.67,0-15.72-7.05-15.72-15.71s7.05-15.71,15.72-15.71,15.72,7.05,15.72,15.71-7.05,15.71-15.72,15.71Zm0-28.53c-7.07,0-12.83,5.75-12.83,12.82s5.75,12.82,12.83,12.82,12.83-5.75,12.83-12.82-5.75-12.82-12.83-12.82Z"/><path class="cls-1" d="M1619.57,130.13c-6.1,0-11.06-4.96-11.06-11.06s4.96-11.06,11.06-11.06,11.06,4.96,11.06,11.06-4.96,11.06-11.06,11.06Zm0-19.22c-4.5,0-8.17,3.66-8.17,8.17s3.66,8.17,8.17,8.17,8.17-3.66,8.17-8.17-3.67-8.17-8.17-8.17Z"/><path class="cls-1" d="M1671.93,124.29h-30.66c-2.88,0-5.22-2.34-5.22-5.22s2.34-5.22,5.22-5.22h30.66c2.88,0,5.22,2.34,5.22,5.22s-2.34,5.22-5.22,5.22Zm-30.66-7.55c-1.29,0-2.33,1.05-2.33,2.33s1.05,2.33,2.33,2.33h30.66c1.29,0,2.33-1.04,2.33-2.33s-1.05-2.33-2.33-2.33h-30.66Z"/><path class="cls-1" d="M1563.76,158.84c-21.94,0-39.79-17.84-39.79-39.77s17.85-39.77,39.79-39.77c4.73,0,9.35,.82,13.75,2.44l3.68,1.36-3.68,1.36c-14.44,5.32-24.14,19.23-24.14,34.62s9.7,29.3,24.14,34.62l3.68,1.36-3.68,1.36c-4.4,1.62-9.03,2.44-13.75,2.44Zm0-76.65c-20.34,0-36.9,16.55-36.9,36.88s16.55,36.88,36.9,36.88c3.09,0,6.12-.38,9.08-1.12-13.52-6.6-22.35-20.51-22.35-35.76s8.84-29.15,22.35-35.76c-2.95-.75-5.99-1.12-9.08-1.12Z"/><path class="cls-1" d="M1802.82,150.18c-1.35,0-2.69-.37-3.89-1.1l-38.84-23.84h-49.97c-3.57,0-6.48-2.91-6.48-6.48s2.91-6.48,6.48-6.48h49.97l38.84-23.84c2.4-1.47,5.38-1.47,7.78,0l38.84,23.84h37.93l38.84-23.84c2.4-1.47,5.38-1.47,7.78,0l39.07,23.98c2.19,1.34,3.55,3.77,3.55,6.34s-1.36,4.99-3.55,6.34l-39.07,23.98c-2.4,1.47-5.38,1.47-7.78,0l-38.84-23.84h-37.93l-38.84,23.84c-1.2,.74-2.55,1.1-3.89,1.1Zm-92.71-35.01c-1.98,0-3.59,1.61-3.59,3.59s1.61,3.59,3.59,3.59h50.82l.5,.32,39.01,23.94c1.47,.9,3.29,.9,4.76,0l39.07-23.98h0s.04-.03,.08-.06l.36-.23h39.62l.47,.31,39.04,23.96c1.47,.9,3.29,.9,4.76,0l39.07-23.98c1.34-.82,2.17-2.31,2.17-3.87s-.83-3.05-2.17-3.87l-39.07-23.98c-1.47-.9-3.29-.9-4.76,0l-39.07,23.98s-.04,.03-.09,.07l-.35,.22h-39.61l-.5-.32-39.01-23.94c-1.47-.9-3.29-.9-4.76,0l-39.07,23.98h0s-.04,.03-.09,.07l-.35,.22h-50.81Zm174.71,7.5h0Zm-.09-.06l.07,.05s-.05-.03-.07-.05Zm41.5,14.8l-30.38-18.65,30.38-18.65,30.38,18.65-30.38,18.65Zm-24.86-18.65l24.86,15.25,24.86-15.25-24.86-15.25-24.86,15.25Zm-98.54,18.65l-30.38-18.65,30.38-18.65,30.38,18.65-30.38,18.65Zm-24.86-18.65l24.86,15.25,24.86-15.25-24.86-15.25-24.86,15.25Z"/><path class="cls-1" d="M2066.19,157.52c-11.42,0-22.91-3.75-32.48-11.46-10.77-8.69-17.52-21.04-18.99-34.8s2.5-27.26,11.19-38.03c3.74-4.63,8.2-8.55,13.26-11.65l3.46-2.12-1.34,3.83c-6.81,19.47-.59,41.25,15.48,54.2,16.06,12.95,38.68,14.41,56.27,3.64l3.46-2.12-1.34,3.82c-1.96,5.6-4.85,10.79-8.59,15.42-10.22,12.67-25.24,19.26-40.38,19.26Zm-28.83-91.25c-3.43,2.51-6.51,5.45-9.2,8.78h0c-8.2,10.17-11.96,22.92-10.56,35.91,1.39,12.99,7.76,24.66,17.93,32.86,21,16.93,51.86,13.62,68.79-7.37,2.69-3.33,4.91-6.97,6.63-10.85-18.04,9.16-40.06,6.99-56-5.86-15.94-12.85-22.72-33.91-17.59-53.47Z"/></g></svg>