<?xml version="1.0" encoding="UTF-8"?><svg id="_Layer_" xmlns="http://www.w3.org/2000/svg" viewBox="0 0 199.14 48.05"><defs><style>.cls-1{fill:#7c877e;}</style></defs><path class="cls-1" d="M140.65,24.84c0-1.8-1.46-3.25-3.25-3.25s-3.25,1.46-3.25,3.25c0,1.8,1.46,3.25,3.25,3.25s3.25-1.46,3.25-3.25Z"/><path class="cls-1" d="M131.96,24.84c0-1.21-.98-2.19-2.19-2.19s-2.19,.98-2.19,2.19,.98,2.19,2.19,2.19,2.19-.98,2.19-2.19Z"/><path class="cls-1" d="M125.69,24.84c0-.48-.39-.86-.86-.86h-6.99c-.48,0-.86,.39-.86,.86s.39,.86,.86,.86h6.99c.48,0,.86-.39,.86-.86Z"/><path class="cls-1" d="M151.24,24.84c0-4.83-3.91-8.74-8.74-8.74-1.06,0-2.08,.19-3.02,.54,3.34,1.23,5.72,4.44,5.72,8.2s-2.38,6.97-5.72,8.2c.94,.35,1.96,.54,3.02,.54,4.83,0,8.74-3.91,8.74-8.74Z"/><path class="cls-1" d="M78.37,25.93l8.91,5.47c.44,.27,.99,.27,1.43,0l8.91-5.47,.02-.02h11.49c.63,0,1.15-.51,1.15-1.15,0-.63-.51-1.15-1.15-1.15h-11.49l-.02-.02-4.45-2.73-4.45-2.73c-.44-.27-.99-.27-1.43,0l-8.91,5.47-.02,.02h-8.84l-.02-.02-4.45-2.73-4.45-2.73c-.44-.27-.99-.27-1.43,0l-8.91,5.47c-.4,.25-.65,.69-.65,1.16s.25,.92,.65,1.16l8.91,5.47c.44,.27,.99,.27,1.43,0l8.91-5.47s.02-.01,.02-.02h8.84s.02,.01,.02,.02Zm-12.21-1.16l-6.3,3.86-6.3-3.86,6.3-3.86,6.3,3.86Zm28.13,0l-6.3,3.86-6.3-3.86,6.3-3.86,6.3,3.86Z"/><path class="cls-1" d="M36.88,14.6c-.85-1.05-1.85-1.91-2.94-2.58,1.56,4.45,.25,9.59-3.63,12.72-3.88,3.13-9.18,3.32-13.21,.85,.42,1.21,1.05,2.37,1.9,3.42,3.98,4.93,11.21,5.71,16.15,1.73,4.94-3.98,5.71-11.21,1.73-16.14Z"/></svg>