<?xml version="1.0" encoding="utf-8"?>
<!-- Generator: Adobe Illustrator 26.3.1, SVG Export Plug-In . SVG Version: 6.00 Build 0)  -->
<svg version="1.1" id="_Layer_" xmlns="http://www.w3.org/2000/svg" xmlns:xlink="http://www.w3.org/1999/xlink" x="0px" y="0px"
	 viewBox="0 0 2156.3 218.9" style="enable-background:new 0 0 2156.3 218.9;" xml:space="preserve">
<style type="text/css">
	.st0{fill:#CEB27C;}
</style>
<g>
	<path class="st0" d="M719.8,164.9c0,5.8,3,16.4,8.9,16.4v2.4h-28.4v-2.4c5.9,0,8.9-10.6,8.9-16.4V87.4c0-10.3-4.7-15.8-14.5-15.8
		v-2.4l25.1-9.4L719.8,164.9L719.8,164.9z"/>
	<path class="st0" d="M859.2,122.4c0,34.7-23.3,63.4-51.9,63.4s-52.1-28.7-52.1-63.4s23.3-62.7,52.1-62.7S859.2,87.7,859.2,122.4z
		 M846.1,122.4c-2.3-31.9-22.3-57.7-43.2-57.7s-37.5,25.8-35,57.7c2.1,31.9,22.5,57.8,43,57.8S848.5,154.3,846.1,122.4z"/>
	<path class="st0" d="M943.8,53.1l-61.5,143.9h-6.1l61-143.9H943.8L943.8,53.1z"/>
	<path class="st0" d="M1003.5,173.6c9.2,0,29.3-1.7,30.3-9.8h2.4l-1.6,19.9h-78.5c0-46.5,68.6-58.5,68.6-91.3c0-8.9-8-26.5-26-26.5
		c-12.2,0-25.1,11.2-25.1,26.3c0,6.8-1.2,12-5.8,12c-6.3,0-8.4-3.5-8.4-9.8c0-15.3,15.2-34,39.2-34s38.8,13.1,38.8,32.2
		c0,34.3-68.3,50.7-68.3,80.8L1003.5,173.6L1003.5,173.6z"/>
	<path class="st0" d="M1059.6,100.8c0-22.5,17.6-40.9,41.3-40.9s41.1,16.2,41.1,40.9c0,39.2-31.7,69.8-59.4,87.9l-1.4-3.8
		c8-7.3,30-29.6,38.8-48.2c-3,1.4-10.6,5.1-20.9,5.1C1075.5,141.7,1059.6,123.4,1059.6,100.8L1059.6,100.8z M1071.3,99.8
		c0,18.6,15.8,34.7,30.7,34.7c9.6,0,18.8-3.8,21.8-5.9c5.2-11.2,5.6-16.6,5.6-29.4c0-18.5-15.5-34-28.2-34
		C1086.8,65.1,1071.3,81.5,1071.3,99.8L1071.3,99.8z"/>
	<path class="st0" d="M1227.5,53.1L1166,196.9h-6.1l61-143.9H1227.5z"/>
	<path class="st0" d="M1287.2,173.6c9.2,0,29.3-1.7,30.3-9.8h2.4l-1.6,19.9h-78.6c0-46.5,68.6-58.5,68.6-91.3
		c0-8.9-8-26.5-25.9-26.5c-12.2,0-25.1,11.2-25.1,26.3c0,6.8-1.2,12-5.8,12c-6.3,0-8.4-3.5-8.4-9.8c0-15.3,15.2-34,39.2-34
		s38.8,13.1,38.8,32.2c0,34.3-68.3,50.7-68.3,80.8L1287.2,173.6L1287.2,173.6z"/>
	<path class="st0" d="M1394,173.6c9.2,0,29.3-1.7,30.3-9.8h2.4l-1.6,19.9h-78.6c0-46.5,68.6-58.5,68.6-91.3c0-8.9-8-26.5-25.9-26.5
		c-12.2,0-25.1,11.2-25.1,26.3c0,6.8-1.2,12-5.8,12c-6.3,0-8.4-3.5-8.4-9.8c0-15.3,15.2-34,39.2-34s38.8,13.1,38.8,32.2
		c0,34.3-68.3,50.7-68.3,80.8L1394,173.6L1394,173.6z"/>
</g>
<path class="st0" d="M1520.4,123.2c0-5,4-8.9,8.9-8.9c4.9,0,8.9,4,8.9,8.9c0,4.9-4,8.9-8.9,8.9
	C1524.4,132.1,1520.4,128.1,1520.4,123.2z"/>
<path class="st0" d="M1544.3,123.2c0-3.3,2.7-6,6-6c3.3,0,6,2.7,6,6c0,3.3-2.7,6-6,6C1547,129.2,1544.3,126.5,1544.3,123.2z"/>
<path class="st0" d="M1561.6,123.2c0-1.3,1.1-2.4,2.4-2.4h19.2c1.3,0,2.4,1.1,2.4,2.4c0,1.3-1.1,2.4-2.4,2.4H1564
	C1562.6,125.5,1561.6,124.4,1561.6,123.2z"/>
<path class="st0" d="M1491.3,123.2c0-13.3,10.8-24,24-24c2.9,0,5.7,0.5,8.3,1.5c-9.2,3.4-15.7,12.2-15.7,22.6s6.5,19.2,15.7,22.6
	c-2.6,1-5.4,1.5-8.3,1.5C1502.1,147.2,1491.3,136.4,1491.3,123.2z"/>
<path class="st0" d="M1691.8,126.1h24.3c0,0,0,0,0.1,0.1l24.5,15c1.2,0.7,2.7,0.7,3.9,0l24.5-15c1.1-0.7,1.8-1.9,1.8-3.2
	s-0.7-2.5-1.8-3.2l-24.5-15c-1.2-0.7-2.7-0.7-3.9,0l-12.2,7.5l-12.2,7.5l-0.1,0.1h-24.3l-0.1-0.1l-24.5-15c-1.2-0.7-2.7-0.7-3.9,0
	l-12.2,7.5l-12.2,7.5l-0.1,0.1h-31.6c-1.7,0-3.2,1.4-3.2,3.2c0,1.7,1.4,3.2,3.2,3.2h31.6l0.1,0.1l24.5,15c1.2,0.7,2.7,0.7,3.9,0
	L1691.8,126.1C1691.8,126.2,1691.9,126.2,1691.8,126.1L1691.8,126.1z M1742.7,112.3L1760,123l-17.3,10.6l-17.3-10.6L1742.7,112.3z
	 M1665.3,112.3l17.3,10.6l-17.3,10.6L1648,123L1665.3,112.3z"/>
<path class="st0" d="M1805.9,95c2.3-2.9,5.1-5.3,8.1-7.1c-4.3,12.2-0.7,26.4,10,35s25.3,9.1,36.3,2.3c-1.2,3.3-2.9,6.5-5.2,9.4
	c-10.9,13.6-30.8,15.7-44.4,4.8S1794.9,108.5,1805.9,95L1805.9,95z"/>
<path class="st0" d="M620.3,131.8c-4.9,0-8.9-4-8.9-8.9c0-4.9,4-8.9,8.9-8.9s8.9,4,8.9,8.9C629.2,127.8,625.2,131.8,620.3,131.8z"/>
<path class="st0" d="M599.3,128.9c-3.3,0-6-2.7-6-6c0-3.3,2.7-6,6-6s6,2.7,6,6S602.6,128.9,599.3,128.9z"/>
<path class="st0" d="M585.7,125.3h-19.2c-1.3,0-2.4-1-2.4-2.4c0-1.3,1-2.4,2.4-2.4h19.2c1.3,0,2.4,1,2.4,2.4
	C588.1,124.2,587,125.3,585.7,125.3z"/>
<path class="st0" d="M634.3,146.9c-2.9,0-5.7-0.5-8.3-1.5c9.2-3.4,15.7-12.2,15.7-22.6s-6.5-19.2-15.7-22.6c2.6-1,5.4-1.5,8.3-1.5
	c13.3,0,24,10.8,24,24S647.6,146.9,634.3,146.9z"/>
<path class="st0" d="M457.8,125.9C457.8,125.9,457.8,125.9,457.8,125.9l24.6,15.1c1.2,0.7,2.7,0.7,3.9,0l24.5-15l0.1-0.1h31.6
	c1.8,0,3.2-1.4,3.2-3.2c0-1.8-1.4-3.2-3.2-3.2h-31.6l-0.1-0.1l-12.2-7.5l-12.2-7.5c-1.2-0.7-2.7-0.7-3.9,0l-24.5,15l-0.1,0.1h-24.3
	l-0.1-0.1l-12.2-7.5l-12.2-7.5c-1.2-0.7-2.7-0.7-3.9,0l-24.5,15c-1.1,0.7-1.8,1.9-1.8,3.2c0,1.3,0.7,2.5,1.8,3.2l24.5,15
	c1.2,0.7,2.7,0.7,3.9,0l24.5-15c0,0,0.1-0.1,0.1-0.1H457.8L457.8,125.9z M424.3,122.7L407,133.3l-17.3-10.6l17.3-10.6L424.3,122.7z
	 M501.7,122.7l-17.3,10.6L467,122.7l17.3-10.6L501.7,122.7z"/>
<path class="st0" d="M343.8,94.7c10.9,13.6,8.8,33.5-4.8,44.4s-33.5,8.8-44.4-4.8c-2.3-2.9-4.1-6.1-5.2-9.4
	c11.1,6.8,25.7,6.3,36.3-2.3c10.7-8.6,14.3-22.8,10-35C338.7,89.5,341.4,91.8,343.8,94.7L343.8,94.7z"/>
</svg>
