<?xml version="1.0" encoding="UTF-8"?><svg id="_Layer_" xmlns="http://www.w3.org/2000/svg" viewBox="0 0 497.45 78.07"><defs><style>.cls-1{fill:#203028;}</style></defs><path class="cls-1" d="M242.56,45.77c1.57,0,2.35,.55,2.35,1.66,0,.73-.55,1.17-1.66,1.32-1.14-.11-1.99-.17-2.57-.17-2.29,.23-6.89,1.83-13.81,4.79-4.33,1.47-7.01,2.2-8.05,2.2h-.69c-1.01,0-2.32-.35-3.93-1.04-1.19-1.08-1.79-2.11-1.79-3.09,.3-1.65,1.03-2.48,2.18-2.48,.76,.26,1.14,.73,1.14,1.4v1.04c0,.96,.6,1.45,1.79,1.45,1.61,0,6.18-1.54,13.71-4.62,3.99-1.64,7.45-2.46,10.38-2.46h.95Zm-3.04-18.73h.45c2,0,3.73,.74,5.2,2.22,0,.12,.03,.24,.09,.37-.07,1.01-.58,1.51-1.53,1.51-1.58-.75-2.42-1.12-2.5-1.12-.37-.06-.73-.09-1.08-.09-1.7,0-6.62,1.43-14.76,4.29-1.4,.4-3.67,.87-6.82,1.4l-.65,.09c-1.8,0-3.22-.59-4.27-1.77-.36-.58-.54-1.17-.54-1.79,0-1.24,.62-2.05,1.86-2.44,.86,.07,1.29,.46,1.29,1.17-.06,.81-.09,1.32-.09,1.53,0,.33,.51,.5,1.53,.5,.43,0,2.99-.63,7.68-1.88,6.33-2.47,11.04-3.81,14.14-3.99Zm-19.06,10.53h.5c1.21,.69,2.17,2.11,2.87,4.25,.4,1.14,.81,3.06,1.23,5.78-.12,.94-.58,1.4-1.4,1.4s-1.37-.83-1.64-2.5c-.04-.06-.1-.09-.17-.09h-.35c-.45,0-.76,.73-.93,2.18,0,.36-.32,.78-.97,1.27h-.73c-.62-.33-.93-.83-.93-1.51,.65-7.02,1.22-10.53,1.73-10.53,.22-.17,.48-.26,.8-.26Zm.99,4.96c-.19,.19-.28,.37-.28,.56,.04,.4,0,.6-.11,.6h.35c.1,0,.15,0,.15-.02v-.04c0-.73-.04-1.1-.11-1.1Zm10.88-7.29c.85,.14,1.27,.59,1.27,1.34-.06,1.22-.09,2.12-.09,2.68h-.09c0-.66,.03-.99,.09-.99,0,.83-.04,1.25-.11,1.25-.04,1.09-.06,2.06-.06,2.91v1.9c0,1.34-.55,2.01-1.66,2.01-.82,0-1.66-.8-2.53-2.4,0-.14-.09-.27-.28-.37,.1,0,.15,.81,.15,2.42-.12,1.21-.58,1.81-1.4,1.81h-.5c-.6-.37-.91-.83-.91-1.36,.11-.73,.2-1.64,.26-2.72l-.45-6c.47-.45,.96-.67,1.45-.67,1.22,1.01,2.2,2.07,2.94,3.19,.07,0,.22,.09,.43,.26h-.5c.13-.4,.37-1.9,.73-4.49,.33-.52,.75-.78,1.25-.78Zm5.22-1.55h.69c1.94,0,3.46,1.18,4.55,3.54,.14,.47,.22,.88,.22,1.23v.35c0,1.68-1.12,3.66-3.37,5.94-1.04,.83-1.88,1.25-2.53,1.25h-.26c-.95,0-1.5-.65-1.66-1.94,.4-2.24,.6-4.48,.6-6.71v-1.99c0-1.11,.58-1.66,1.75-1.66Zm.97,7.71c0,.27-.09,.41-.28,.41h.17c.43,0,.97-1.03,1.62-3.09,0-.49,.03-.76,.09-.82,0-.72-.43-1.24-1.29-1.58h.02c-.22,0-.32,.45-.32,1.36v3.71Z"/><g><path class="cls-1" d="M57.81,74.93H24.07v-3.35h1.09c.53,0,.95-.09,1.24-.26,.29-.17,.51-.49,.66-.95,.15-.46,.24-1.12,.29-1.97,.05-.85,.12-1.93,.22-3.24,.05-.83,.08-1.89,.11-3.21,.02-1.31,.05-3.1,.07-5.36,.02-2.26,.04-5.1,.04-8.53v-12.57c0-3.84-.01-7-.04-9.47s-.05-4.51-.07-6.08c-.03-1.58-.07-2.85-.15-3.83-.07-.97-.16-1.89-.25-2.77-.1-.87-.3-1.47-.62-1.79-.32-.32-.84-.47-1.57-.47h-1.02v-3.28h15.08v3.28h-1.97c-1.26,0-2.04,.75-2.33,2.26-.05,.39-.11,.97-.18,1.75-.07,.78-.13,2.02-.18,3.72-.05,1.7-.1,4.02-.15,6.96-.05,2.94-.07,6.77-.07,11.48,0,5.25,.02,10.17,.07,14.76,.05,4.59,.12,8.98,.22,13.15,.05,1.89,.27,3.28,.66,4.15,.39,.87,1.07,1.31,2.04,1.31h15.38c.68,0,1.19-.32,1.53-.95,.34-.63,.51-1.65,.51-3.06h3.13v8.31Z"/><path class="cls-1" d="M82.15,56.49c0,1.56-.47,2.88-1.42,3.97-.95,1.09-2.34,1.64-4.19,1.64-1.31,0-2.44-.44-3.39-1.31-.95-.87-1.71-1.9-2.29-3.06-.97,1.36-2.15,2.45-3.53,3.28-1.38,.83-3.07,1.24-5.06,1.24-3.5,0-6.11-.75-7.83-2.26-1.72-1.51-2.59-3.59-2.59-6.27,0-1.85,.34-3.34,1.02-4.48,.68-1.14,1.87-2.22,3.57-3.24,1.26-.83,2.71-1.59,4.34-2.3,1.63-.7,3.22-1.54,4.77-2.51,.68-.44,1.38-.87,2.11-1.31,.73-.44,1.36-.95,1.89-1.53,0-2.09-.07-3.73-.22-4.92-.15-1.19-.46-2.12-.95-2.81-.44-.68-.95-1.14-1.53-1.38-.58-.24-1.43-.36-2.55-.36-1.21,0-2.21,.22-2.99,.66-.78,.44-1.24,1-1.38,1.68,2.14,.78,3.21,2.43,3.21,4.96,0,1.36-.44,2.54-1.31,3.53-.87,1-1.97,1.49-3.28,1.49-1.41,0-2.55-.45-3.42-1.35-.87-.9-1.31-2.25-1.31-4.04,0-1.55,.3-2.95,.91-4.19,.61-1.24,1.43-2.3,2.48-3.17,1.04-.87,2.26-1.54,3.64-2,1.38-.46,2.83-.69,4.34-.69,1.75,0,3.34,.22,4.77,.66,1.43,.44,2.61,1.19,3.53,2.26,.58,.68,1.06,1.46,1.42,2.33s.64,1.96,.84,3.24c.19,1.29,.33,2.85,.4,4.7,.07,1.85,.11,4.08,.11,6.7v5.03c0,1.26,.02,2.27,.07,3.02,.05,.75,.08,1.34,.11,1.75,.02,.41,.08,.79,.18,1.13,.15,.68,.34,1.12,.58,1.31,.24,.19,.51,.29,.8,.29,.83,0,1.24-.66,1.24-1.97v-2.4h2.92v2.7Zm-12.32-2.7v-2.99c0-1.12-.01-2.25-.04-3.39-.03-1.14-.05-2.27-.07-3.39-.02-1.12-.04-2.11-.04-2.99-.83,1.21-1.87,2.22-3.13,3.02-1.26,.8-2.45,1.62-3.57,2.44-1.21,.92-2.19,1.85-2.92,2.77-.73,.92-1.09,2.28-1.09,4.08,0,1.46,.5,2.64,1.49,3.53,1,.9,2.25,1.35,3.75,1.35,.87,0,1.63-.15,2.26-.44,.63-.29,1.17-.66,1.6-1.09,.44-.44,.8-.91,1.09-1.42,.29-.51,.51-1.01,.66-1.49Z"/><path class="cls-1" d="M111.51,29.82h-.87c-.92,0-1.56,.32-1.89,.95-.15,.19-.25,.46-.33,.8-.07,.34-.12,1-.15,1.97-.03,.97-.05,2.37-.07,4.19s-.04,4.31-.04,7.47c0,2.04-.04,3.75-.11,5.14-.07,1.38-.17,2.55-.29,3.5-.12,.95-.29,1.74-.51,2.37-.22,.63-.47,1.19-.76,1.68-1.7,2.92-4.71,4.37-9.04,4.37-2.19,0-4.13-.29-5.83-.87-1.7-.58-3.09-1.51-4.15-2.77-.44-.49-.8-1.07-1.09-1.75-.29-.68-.52-1.57-.69-2.66-.17-1.09-.3-2.44-.4-4.04-.1-1.6-.15-3.57-.15-5.9,0-2.96-.01-5.32-.04-7.07s-.05-3.08-.07-4.01c-.03-.92-.07-1.54-.15-1.86-.07-.31-.16-.55-.25-.69-.19-.29-.49-.5-.87-.62-.39-.12-1.04-.18-1.97-.18v-3.28h14.14v3.28h-1.09c-.68,0-1.24,.24-1.68,.73-.2,.19-.34,.44-.44,.73-.1,.29-.18,.86-.25,1.71-.07,.85-.12,2.07-.15,3.64-.03,1.58-.04,3.78-.04,6.59,0,2.53,.02,4.55,.07,6.08,.05,1.53,.11,2.75,.18,3.64,.07,.9,.17,1.58,.29,2.04,.12,.46,.28,.89,.47,1.28,.49,.97,1.04,1.64,1.68,2,.63,.36,1.5,.55,2.62,.55,.97,0,1.79-.19,2.44-.58,.66-.39,1.23-1.04,1.71-1.97,.19-.39,.35-.81,.47-1.28,.12-.46,.22-1.13,.29-2s.12-2.03,.15-3.46c.02-1.43,.04-3.36,.04-5.79s-.01-4.55-.04-6.08-.05-2.76-.07-3.68c-.03-.92-.07-1.59-.15-2-.07-.41-.16-.74-.25-.98-.24-.78-1.02-1.17-2.33-1.17h-.58v-3.28h12.24v3.28Z"/><path class="cls-1" d="M124.19,30.19c.83-1.17,1.94-2.2,3.35-3.1,1.41-.9,3.08-1.35,5.03-1.35,2.91,0,5.1,.78,6.56,2.33,1.46,1.56,2.19,4.08,2.19,7.58,0,1.65-.46,2.98-1.38,3.97-.92,1-2.07,1.49-3.42,1.49s-2.53-.46-3.35-1.38c-.83-.92-1.24-2.14-1.24-3.64,0-1.26,.33-2.39,.98-3.39,.66-1,1.59-1.49,2.81-1.49,0-.83-.3-1.38-.91-1.68s-1.25-.44-1.93-.44c-2.04,0-3.62,.8-4.74,2.4-1.12,1.6-1.68,4.28-1.68,8.02v11c0,1.75,.01,3.07,.04,3.97,.02,.9,.05,1.49,.07,1.79,.02,.29,.08,.54,.18,.73,.15,.39,.39,.68,.73,.87,.34,.19,.92,.29,1.75,.29h1.75v3.35h-15.08v-3.35h1.09c.97,0,1.63-.48,1.97-1.46,.1-.29,.18-.63,.25-1.02,.07-.39,.12-1.09,.15-2.11,.02-1.02,.05-2.53,.07-4.52,.02-1.99,.04-4.78,.04-8.38v-4.74c0-1.21-.02-2.16-.07-2.84-.05-.68-.11-1.18-.18-1.49-.07-.31-.18-.55-.33-.69-.29-.29-.59-.55-.91-.77-.32-.22-.77-.33-1.35-.33h-.73v-3.28h1.97c.97,0,1.79,.06,2.44,.18,.66,.12,1.21,.33,1.68,.62,.46,.29,.86,.67,1.2,1.13,.34,.46,.68,1.03,1.02,1.71Z"/><path class="cls-1" d="M168.79,53.22c-1.85,6.02-5.51,9.04-11,9.04-2.09,0-3.96-.55-5.61-1.64-1.65-1.09-3.04-2.56-4.15-4.41-.88-1.41-1.54-3.08-2-5.03-.46-1.94-.69-4.25-.69-6.92,0-3.64,.35-6.58,1.06-8.82,.7-2.23,1.69-4.08,2.95-5.54,1.12-1.26,2.39-2.27,3.83-3.02,1.43-.75,2.98-1.13,4.63-1.13,3.35,0,5.99,.85,7.91,2.55,1.92,1.7,2.88,4.28,2.88,7.72,0,.73-.07,1.37-.22,1.93-.15,.56-.44,1.08-.87,1.57-.44,.49-1.03,.95-1.79,1.38-.75,.44-1.74,.92-2.95,1.46l-9.91,4.37c0,1.94,.04,3.53,.11,4.77,.07,1.24,.18,2.23,.33,2.99,.15,.75,.33,1.35,.55,1.79s.45,.8,.69,1.09c.97,1.12,2.06,1.68,3.28,1.68,2.48,0,4.48-.64,6.01-1.93,1.53-1.29,2.54-2.73,3.02-4.34l1.97,.44Zm-5.54-17.63c0-2.19-.38-3.83-1.13-4.92-.75-1.09-2.2-1.64-4.34-1.64-.73,0-1.4,.18-2,.55s-1.15,.84-1.64,1.42c-.24,.29-.44,.63-.58,1.02-.15,.39-.28,1.01-.4,1.86-.12,.85-.21,1.98-.25,3.39-.05,1.41-.07,3.26-.07,5.54l8.53-3.5c.68-.24,1.17-.64,1.46-1.2,.29-.56,.44-1.4,.44-2.51Z"/><path class="cls-1" d="M203.98,61.52h-13.99v-3.35h1.02c.92,0,1.5-.19,1.75-.58,.15-.15,.27-.38,.36-.69,.1-.31,.18-.97,.25-1.97,.07-1,.13-2.43,.18-4.3,.05-1.87,.07-4.46,.07-7.76,0-2.33-.02-4.16-.07-5.5-.05-1.34-.13-2.39-.25-3.17-.12-.78-.29-1.36-.51-1.75-.22-.39-.5-.8-.84-1.24-.83-1.02-2.04-1.53-3.64-1.53-.87,0-1.6,.17-2.19,.51-.58,.34-1.07,.75-1.46,1.24-.29,.39-.55,.85-.76,1.38-.22,.54-.39,1.24-.51,2.11s-.21,1.98-.25,3.32c-.05,1.34-.07,3-.07,4.99v7.29c0,1.75,.01,3.07,.04,3.97,.02,.9,.05,1.49,.07,1.79,.02,.29,.08,.54,.18,.73,.15,.39,.39,.68,.73,.87,.34,.19,.92,.29,1.75,.29h.73v3.35h-14.06v-3.35h1.09c.97,0,1.63-.48,1.97-1.46,.1-.29,.18-.63,.25-1.02,.07-.39,.12-1.09,.15-2.11,.02-1.02,.05-2.53,.07-4.52,.02-1.99,.04-4.78,.04-8.38v-4.74c0-1.21-.02-2.16-.07-2.84-.05-.68-.11-1.18-.18-1.49-.07-.31-.18-.55-.33-.69-.29-.29-.59-.55-.91-.77-.32-.22-.77-.33-1.35-.33h-.73v-3.28h1.97c.97,0,1.77,.06,2.4,.18,.63,.12,1.17,.33,1.6,.62,.44,.29,.81,.66,1.13,1.09,.32,.44,.64,.95,.98,1.53,.97-1.36,2.15-2.4,3.53-3.13,1.38-.73,3.29-1.09,5.72-1.09,2.04,0,3.75,.34,5.14,1.02,1.38,.68,2.5,1.56,3.35,2.62,.85,1.07,1.46,2.25,1.82,3.53,.36,1.29,.55,2.51,.55,3.68,0,4.71,.02,8.41,.07,11.08,.05,2.67,.1,4.7,.15,6.08,.05,1.38,.11,2.3,.18,2.73,.07,.44,.13,.73,.18,.87,.19,.53,.83,.8,1.89,.8h.8v3.35Z"/></g><g><path class="cls-1" d="M295.23,75.38h-14.31v-3.47h.68c1,0,1.69-.14,2.07-.41,.38-.28,.59-.87,.64-1.77,.1-2.16,.19-4.27,.26-6.33,.08-2.06,.14-4.38,.19-6.97,.05-2.59,.09-5.59,.11-9,.02-3.41,.04-7.58,.04-12.5v-3.95c0-1.33-.03-2.72-.08-4.18-3.77,18.93-6.78,35.13-9.04,48.59h-6.03c-.2-1.21-.52-3.04-.94-5.5-.43-2.46-.92-5.24-1.47-8.32-.55-3.09-1.16-6.35-1.81-9.79-.65-3.44-1.28-6.75-1.88-9.94-.6-3.19-1.17-6.1-1.69-8.74-.53-2.64-.94-4.71-1.24-6.21-.05,1.56-.09,3.18-.11,4.86-.03,1.68-.04,3.28-.04,4.78,0,.85,.01,2.18,.04,3.99,.03,1.81,.05,3.83,.08,6.06,.03,2.24,.06,4.58,.11,7.04,.05,2.46,.1,4.78,.15,6.97,.05,2.18,.1,4.1,.15,5.76,.05,1.66,.1,2.81,.15,3.47,.05,.95,.28,1.54,.68,1.77,.4,.23,1.05,.34,1.96,.34h.9v3.47h-11.15v-3.54h.68c1.41,0,2.23-.23,2.49-.68,.1-.25,.19-.58,.26-.98,.08-.4,.16-1.23,.26-2.49,.05-1.16,.09-2.37,.11-3.65,.02-1.28,.06-3.06,.11-5.35,.05-2.28,.09-5.28,.11-9,.02-3.72,.04-8.61,.04-14.69,0-4.67-.03-8.47-.08-11.41-.05-2.94-.11-5.27-.19-7.01-.08-1.73-.18-3.01-.3-3.84-.13-.83-.26-1.44-.41-1.85-.25-.5-.52-.88-.79-1.13-.28-.25-.84-.38-1.7-.38h-.6v-3.39h11.83c.15,1.56,.4,3.59,.75,6.1,.35,2.51,.75,5.34,1.21,8.47,.45,3.14,.95,6.49,1.51,10.06,.55,3.57,1.14,7.19,1.77,10.88s1.25,7.37,1.88,11.04c.63,3.67,1.24,7.13,1.85,10.4,.75-3.11,1.53-6.41,2.33-9.91,.8-3.49,1.63-7.46,2.49-11.9,.85-4.44,1.78-9.52,2.79-15.22,1-5.7,2.11-12.34,3.31-19.92h9.87v3.39h-.68c-.6,0-1.11,.13-1.51,.38-.4,.25-.75,.8-1.05,1.66-.2,.75-.36,1.57-.49,2.45-.13,.88-.23,2.18-.3,3.92s-.13,4.07-.15,7.01c-.03,2.94-.04,6.82-.04,11.64v10.92c0,3.11,.03,5.8,.08,8.06,.05,2.26,.09,4.16,.11,5.69,.03,1.53,.06,2.84,.11,3.92,.05,1.08,.1,1.98,.15,2.71,.05,.73,.12,1.39,.23,2,.1,1.05,.38,1.68,.83,1.88,.45,.2,1.08,.3,1.88,.3h.83v3.47Z"/><path class="cls-1" d="M328.82,56.33c0,1.61-.49,2.98-1.47,4.11-.98,1.13-2.42,1.69-4.33,1.69-1.36,0-2.52-.45-3.5-1.36-.98-.9-1.77-1.96-2.37-3.16-1,1.41-2.22,2.54-3.65,3.39-1.43,.85-3.18,1.28-5.24,1.28-3.62,0-6.32-.78-8.1-2.34-1.78-1.56-2.67-3.72-2.67-6.48,0-1.91,.35-3.45,1.05-4.63,.7-1.18,1.93-2.3,3.69-3.35,1.3-.85,2.8-1.64,4.48-2.37,1.68-.73,3.33-1.59,4.93-2.6,.7-.45,1.43-.9,2.18-1.36,.75-.45,1.41-.98,1.96-1.58,0-2.16-.08-3.85-.23-5.08-.15-1.23-.48-2.2-.98-2.9-.45-.7-.98-1.18-1.58-1.43-.6-.25-1.48-.38-2.64-.38-1.26,0-2.29,.23-3.09,.68-.8,.45-1.28,1.03-1.43,1.73,2.21,.8,3.31,2.51,3.31,5.12,0,1.41-.45,2.62-1.36,3.65-.9,1.03-2.03,1.54-3.39,1.54-1.46,0-2.64-.46-3.54-1.39-.9-.93-1.36-2.32-1.36-4.18,0-1.61,.31-3.05,.94-4.33,.63-1.28,1.48-2.37,2.56-3.28,1.08-.9,2.33-1.59,3.77-2.07,1.43-.48,2.92-.72,4.48-.72,1.81,0,3.45,.23,4.93,.68,1.48,.45,2.7,1.23,3.65,2.33,.6,.7,1.09,1.51,1.47,2.41,.38,.9,.67,2.02,.87,3.35,.2,1.33,.34,2.95,.42,4.86,.08,1.91,.11,4.22,.11,6.93v5.2c0,1.31,.03,2.35,.08,3.13,.05,.78,.09,1.38,.11,1.81,.03,.43,.09,.82,.19,1.17,.15,.7,.35,1.16,.6,1.36,.25,.2,.53,.3,.83,.3,.85,0,1.28-.68,1.28-2.03v-2.49h3.01v2.79Zm-12.73-2.79v-3.09c0-1.15-.01-2.32-.04-3.5-.03-1.18-.05-2.35-.08-3.5-.03-1.15-.04-2.18-.04-3.09-.85,1.26-1.93,2.3-3.24,3.13s-2.54,1.67-3.69,2.52c-1.26,.95-2.26,1.91-3.01,2.86-.75,.95-1.13,2.36-1.13,4.22,0,1.51,.51,2.72,1.54,3.65,1.03,.93,2.32,1.39,3.88,1.39,.9,0,1.68-.15,2.33-.45,.65-.3,1.21-.68,1.66-1.13,.45-.45,.83-.94,1.13-1.47,.3-.53,.53-1.04,.68-1.54Z"/><path class="cls-1" d="M349.91,63.78c-.05,.75-.26,1.52-.64,2.3-.38,.78-.89,1.47-1.54,2.07-.65,.6-1.43,1.1-2.33,1.51-.9,.4-1.93,.6-3.09,.6-1.66,0-3.13-.24-4.41-.72-1.28-.48-2.42-1.47-3.43-2.98-.35-.55-.67-1.21-.94-1.96-.28-.75-.5-1.72-.68-2.9-.18-1.18-.31-2.64-.41-4.37-.1-1.73-.15-3.85-.15-6.37v-9.6c0-2.49-.01-4.52-.04-6.1-.03-1.58-.06-2.85-.11-3.8-.05-.95-.1-1.86-.15-2.71h-3.99v-3.39h.53c1.21,0,2.31-.4,3.31-1.21,1-.8,1.87-1.83,2.6-3.09,.73-1.25,1.29-2.67,1.7-4.26,.4-1.58,.6-3.13,.6-4.63v-1.51h2.86v14.69h6.18v3.39h-6.18c-.15,1.26-.26,2.52-.34,3.8s-.15,2.76-.23,4.44c-.08,1.68-.13,3.64-.15,5.88-.03,2.24-.04,4.93-.04,8.1,0,2.21,.01,3.99,.04,5.35,.02,1.36,.08,2.47,.15,3.35,.08,.88,.16,1.62,.26,2.22,.1,.6,.25,1.23,.45,1.88,.3,1.15,.79,1.97,1.47,2.45,.68,.48,1.47,.72,2.37,.72,1.15,0,2.08-.36,2.79-1.09,.7-.73,1.18-1.57,1.43-2.52l2.11,.45Z"/><path class="cls-1" d="M371.53,63.78c-.05,.75-.26,1.52-.64,2.3-.38,.78-.89,1.47-1.54,2.07-.65,.6-1.43,1.1-2.33,1.51-.9,.4-1.93,.6-3.09,.6-1.66,0-3.13-.24-4.41-.72-1.28-.48-2.42-1.47-3.43-2.98-.35-.55-.67-1.21-.94-1.96-.28-.75-.5-1.72-.68-2.9-.18-1.18-.31-2.64-.41-4.37-.1-1.73-.15-3.85-.15-6.37v-9.6c0-2.49-.01-4.52-.04-6.1-.03-1.58-.06-2.85-.11-3.8-.05-.95-.1-1.86-.15-2.71h-3.99v-3.39h.53c1.21,0,2.31-.4,3.31-1.21,1-.8,1.87-1.83,2.6-3.09,.73-1.25,1.29-2.67,1.7-4.26,.4-1.58,.6-3.13,.6-4.63v-1.51h2.86v14.69h6.18v3.39h-6.18c-.15,1.26-.26,2.52-.34,3.8s-.15,2.76-.23,4.44c-.08,1.68-.13,3.64-.15,5.88-.03,2.24-.04,4.93-.04,8.1,0,2.21,.01,3.99,.04,5.35,.02,1.36,.08,2.47,.15,3.35,.08,.88,.16,1.62,.26,2.22,.1,.6,.25,1.23,.45,1.88,.3,1.15,.79,1.97,1.47,2.45,.68,.48,1.47,.72,2.37,.72,1.15,0,2.08-.36,2.79-1.09,.7-.73,1.18-1.57,1.43-2.52l2.11,.45Z"/><path class="cls-1" d="M404,61.52h-14.54v-3.46h1.05c.6,0,1.08-.06,1.43-.19,.35-.12,.61-.48,.79-1.05,.17-.58,.28-1.43,.3-2.56,.02-1.13,.04-2.67,.04-4.63v-14.91c0-.75-.11-1.49-.34-2.22-.23-.73-.59-1.39-1.09-2-.45-.55-1.02-1.02-1.69-1.39-.68-.38-1.42-.56-2.22-.56-1.71,0-3.05,.64-4.03,1.92-.98,1.28-1.47,2.75-1.47,4.41v15.44c0,1.46,.04,2.69,.11,3.69,.08,1,.24,1.81,.49,2.41,.25,.6,.61,1.03,1.09,1.28,.48,.25,1.14,.38,2,.38v3.46h-14.46v-3.46h1.13c1.41,0,2.13-.78,2.18-2.34,.25-4.62,.4-9.11,.45-13.48,.05-4.37,.08-8.84,.08-13.41,0-2.81-.03-5.76-.08-8.85-.05-3.09-.2-6.67-.45-10.73-.1-1.1-.41-1.76-.94-1.96-.53-.2-1.32-.3-2.37-.3V3.52h11.15c0,2.56-.03,5.75-.08,9.57-.05,3.82-.13,8.61-.23,14.39,.7-1,1.57-1.74,2.6-2.22,1.03-.48,2.35-.72,3.96-.72s3.08,.25,4.41,.75c1.33,.5,2.5,1.18,3.5,2.03,1.16,1.01,2.06,2.21,2.71,3.62,.65,1.41,.98,2.96,.98,4.67v10.17c0,3.01,.05,5.35,.15,7.01s.29,2.88,.57,3.65c.28,.78,.64,1.24,1.09,1.39,.45,.15,1.03,.23,1.73,.23v3.46Z"/><path class="cls-1" d="M430.36,52.94c-1.91,6.23-5.7,9.34-11.37,9.34-2.16,0-4.09-.56-5.8-1.69s-3.14-2.65-4.29-4.56c-.9-1.46-1.6-3.19-2.07-5.2-.48-2.01-.71-4.39-.71-7.16,0-3.77,.36-6.8,1.09-9.11,.73-2.31,1.74-4.22,3.05-5.72,1.15-1.31,2.47-2.35,3.96-3.13,1.48-.78,3.08-1.17,4.78-1.17,3.46,0,6.19,.88,8.17,2.64,1.98,1.76,2.98,4.42,2.98,7.98,0,.75-.08,1.42-.23,2-.15,.58-.45,1.12-.9,1.62-.45,.5-1.07,.98-1.85,1.43-.78,.45-1.8,.95-3.05,1.51l-10.24,4.52c0,2.01,.04,3.65,.11,4.93,.08,1.28,.19,2.31,.34,3.09,.15,.78,.34,1.39,.57,1.85,.23,.45,.46,.83,.72,1.13,1,1.16,2.13,1.73,3.39,1.73,2.56,0,4.63-.67,6.21-2,1.58-1.33,2.62-2.83,3.13-4.48l2.03,.45Zm-5.72-18.23c0-2.26-.39-3.96-1.17-5.08-.78-1.13-2.27-1.69-4.48-1.69-.75,0-1.44,.19-2.07,.56-.63,.38-1.19,.87-1.7,1.47-.25,.3-.45,.65-.6,1.05-.15,.4-.29,1.04-.41,1.92-.13,.88-.21,2.05-.26,3.5-.05,1.46-.08,3.36-.08,5.72l8.81-3.62c.7-.25,1.21-.66,1.51-1.24,.3-.58,.45-1.44,.45-2.6Z"/><path class="cls-1" d="M476.54,28.76h-.68c-.55,0-.99,.14-1.32,.41-.33,.28-.62,.89-.87,1.85-.5,1.66-1.02,3.62-1.54,5.88-.53,2.26-1.08,4.71-1.66,7.34-.58,2.64-1.13,5.42-1.66,8.36-.53,2.94-1.04,5.91-1.54,8.93h-4.82c-.45-1.76-.98-3.67-1.58-5.73-.6-2.06-1.22-4.14-1.85-6.25-.63-2.11-1.27-4.19-1.92-6.25-.65-2.06-1.28-3.99-1.88-5.8-1.01,3.31-2.08,7.03-3.24,11.15-1.16,4.12-2.24,8.41-3.24,12.88h-5.27c-.5-2.46-1.09-5.2-1.77-8.21-.68-3.01-1.37-5.99-2.07-8.93-.7-2.94-1.39-5.66-2.07-8.17-.68-2.51-1.27-4.49-1.77-5.95-.35-1-1.03-1.51-2.03-1.51h-.38v-3.39h14.39v3.39h-1.43c-.5,0-1.05,.08-1.66,.23-.6,.15-.9,.65-.9,1.51,0,.2,.01,.45,.04,.75,.02,.3,.09,.73,.19,1.28,.55,3.52,1.19,6.97,1.92,10.36,.73,3.39,1.49,6.42,2.3,9.08,.4-1.25,.88-2.81,1.43-4.67,.55-1.86,1.09-3.78,1.62-5.76,.53-1.98,1.02-3.9,1.47-5.76,.45-1.86,.75-3.41,.9-4.67h6.33c.25,1.26,.61,2.8,1.09,4.63,.48,1.83,1,3.73,1.58,5.69s1.17,3.88,1.77,5.76c.6,1.88,1.15,3.48,1.66,4.78,.65-2.41,1.28-5.25,1.88-8.51,.6-3.26,1.18-6.83,1.73-10.7,.05-.25,.1-.67,.15-1.24,.05-.58,.08-.99,.08-1.24,0-.4-.2-.75-.6-1.05-.4-.3-1.03-.45-1.88-.45h-1.05v-3.39h10.17v3.39Z"/></g></svg>