<?xml version="1.0" encoding="UTF-8"?><svg id="_Layer_" xmlns="http://www.w3.org/2000/svg" viewBox="0 0 2863.95 564.21"><defs><style>.cls-1{fill:#ceb27c;}</style></defs><path class="cls-1" d="M1398.26,298.39c9.42,0,14.13,3.33,14.13,9.98,0,4.41-3.33,7.04-9.98,7.91-6.83-.69-11.97-1.04-15.42-1.04-13.74,1.38-41.39,10.97-82.94,28.77-26.01,8.81-42.12,13.22-48.34,13.22h-4.15c-6.05,0-13.91-2.07-23.59-6.22-7.17-6.48-10.76-12.66-10.76-18.53,1.81-9.93,6.18-14.9,13.09-14.9,4.58,1.56,6.87,4.36,6.87,8.42v6.22c0,5.79,3.58,8.68,10.76,8.68,9.68,0,37.11-9.24,82.29-27.73,23.93-9.85,44.71-14.77,62.34-14.77h5.7Zm-18.27-112.49h2.72c12.01,0,22.42,4.45,31.23,13.35,0,.69,.17,1.43,.52,2.2-.43,6.05-3.5,9.07-9.2,9.07-9.51-4.49-14.51-6.74-15.03-6.74-2.25-.34-4.41-.52-6.48-.52-10.2,0-39.74,8.6-88.64,25.79-8.38,2.42-22.03,5.23-40.95,8.42l-3.89,.52c-10.8,0-19.35-3.54-25.66-10.63-2.16-3.45-3.24-7.04-3.24-10.76,0-7.43,3.71-12.31,11.15-14.64,5.18,.43,7.78,2.77,7.78,7-.35,4.84-.52,7.91-.52,9.2,0,1.99,3.07,2.98,9.2,2.98,2.59,0,17.97-3.76,46.14-11.27,38.01-14.86,66.31-22.85,84.89-23.98Zm-114.43,63.24h2.98c7.26,4.15,13,12.66,17.24,25.53,2.42,6.83,4.88,18.4,7.39,34.73-.69,5.62-3.5,8.42-8.42,8.42s-8.21-5.01-9.85-15.03c-.26-.34-.61-.52-1.04-.52h-2.07c-2.68,0-4.54,4.36-5.57,13.09,0,2.16-1.94,4.71-5.83,7.65h-4.41c-3.72-1.99-5.57-5.01-5.57-9.07,3.89-42.16,7.34-63.24,10.37-63.24,1.3-1.04,2.89-1.56,4.79-1.56Zm5.96,29.81c-1.12,1.12-1.68,2.25-1.68,3.37,.26,2.42,.04,3.63-.65,3.63h2.07c.6,0,.91-.04,.91-.13v-.26c0-4.41-.22-6.61-.65-6.61Zm65.32-43.8c5.1,.86,7.65,3.54,7.65,8.03-.35,7.34-.52,12.7-.52,16.07h-.52c0-3.97,.17-5.96,.52-5.96,0,5.01-.22,7.52-.65,7.52-.26,6.57-.39,12.4-.39,17.5v11.4c0,8.03-3.33,12.05-9.98,12.05-4.92,0-9.98-4.8-15.16-14.39,0-.86-.56-1.6-1.68-2.2,.6,0,.91,4.84,.91,14.51-.69,7.26-3.5,10.89-8.42,10.89h-2.98c-3.63-2.25-5.44-4.97-5.44-8.16,.69-4.41,1.21-9.85,1.56-16.33l-2.72-36.03c2.85-2.68,5.74-4.02,8.68-4.02,7.34,6.05,13.22,12.44,17.63,19.18,.43,0,1.3,.52,2.59,1.56h-2.98c.78-2.42,2.25-11.4,4.41-26.96,1.99-3.11,4.49-4.67,7.52-4.67Zm31.36-9.33h4.15c11.66,0,20.78,7.09,27.34,21.25,.86,2.85,1.3,5.31,1.3,7.39v2.07c0,10.11-6.74,21.99-20.22,35.64-6.22,5.01-11.28,7.52-15.16,7.52h-1.56c-5.7,0-9.03-3.89-9.98-11.66,2.42-13.48,3.63-26.91,3.63-40.3v-11.92c0-6.65,3.5-9.98,10.5-9.98Zm5.83,46.27c0,1.64-.56,2.46-1.68,2.46h1.04c2.59,0,5.83-6.18,9.72-18.53,0-2.94,.17-4.58,.52-4.92,0-4.32-2.59-7.47-7.78-9.46h.13c-1.3,0-1.94,2.72-1.94,8.16v22.29Z"/><g><path class="cls-1" d="M288.93,473.48H86.34v-20.13h6.56c3.21,0,5.69-.51,7.44-1.53,1.75-1.03,3.06-2.92,3.94-5.69,.88-2.78,1.46-6.71,1.75-11.81,.29-5.11,.72-11.59,1.31-19.47,.29-4.96,.51-11.38,.66-19.25,.14-7.88,.29-18.6,.44-32.16,.14-13.56,.22-30.63,.22-51.19v-75.48c0-23.04-.08-42.01-.22-56.88-.15-14.88-.29-27.05-.44-36.54-.15-9.48-.44-17.13-.88-22.97-.44-5.83-.95-11.38-1.53-16.63-.59-5.25-1.83-8.82-3.72-10.72-1.9-1.89-5.03-2.84-9.41-2.84h-6.13v-19.69h90.57v19.69h-11.81c-7.59,0-12.25,4.53-14,13.56-.29,2.34-.66,5.84-1.09,10.5-.44,4.67-.81,12.11-1.09,22.32-.29,10.21-.59,24.14-.88,41.79-.29,17.65-.44,40.62-.44,68.92,0,31.5,.14,61.04,.44,88.61,.29,27.57,.72,53.89,1.31,78.98,.29,11.38,1.6,19.69,3.94,24.94,2.33,5.25,6.41,7.88,12.25,7.88h92.32c4.08,0,7.14-1.9,9.19-5.69,2.04-3.79,3.06-9.92,3.06-18.38h18.81v49.88Z"/><path class="cls-1" d="M435.08,362.78c0,9.34-2.84,17.28-8.53,23.85s-14.08,9.84-25.16,9.84c-7.88,0-14.66-2.62-20.35-7.88-5.69-5.25-10.28-11.38-13.78-18.38-5.84,8.17-12.91,14.73-21.22,19.69-8.31,4.96-18.45,7.44-30.41,7.44-21,0-36.69-4.52-47.04-13.56-10.36-9.04-15.53-21.58-15.53-37.63,0-11.08,2.04-20.05,6.12-26.91,4.08-6.85,11.23-13.34,21.44-19.47,7.58-4.96,16.26-9.55,26.03-13.78,9.77-4.22,19.32-9.26,28.66-15.1,4.08-2.62,8.31-5.25,12.69-7.88,4.38-2.62,8.16-5.69,11.38-9.19,0-12.54-.44-22.38-1.31-29.54-.88-7.14-2.78-12.76-5.69-16.85-2.62-4.08-5.69-6.85-9.19-8.31-3.5-1.46-8.61-2.19-15.31-2.19-7.29,0-13.28,1.31-17.94,3.94-4.67,2.63-7.44,5.98-8.31,10.06,12.83,4.67,19.25,14.59,19.25,29.75,0,8.17-2.62,15.25-7.88,21.22-5.25,5.98-11.81,8.97-19.69,8.97-8.46,0-15.31-2.69-20.57-8.09-5.25-5.39-7.88-13.49-7.88-24.28,0-9.33,1.82-17.72,5.47-25.16,3.64-7.44,8.6-13.78,14.88-19.03,6.27-5.25,13.56-9.26,21.88-12.03,8.31-2.77,16.99-4.16,26.03-4.16,10.5,0,20.05,1.31,28.66,3.94,8.6,2.62,15.68,7.15,21.22,13.56,3.5,4.09,6.34,8.75,8.53,14,2.19,5.25,3.86,11.75,5.03,19.47,1.16,7.73,1.97,17.14,2.41,28.22,.44,11.09,.66,24.5,.66,40.25v30.19c0,7.59,.14,13.64,.44,18.16,.29,4.53,.51,8.03,.66,10.5,.14,2.48,.51,4.75,1.09,6.78,.88,4.09,2.04,6.71,3.5,7.88,1.46,1.17,3.06,1.75,4.81,1.75,4.96,0,7.44-3.94,7.44-11.81v-14.44h17.5v16.19Zm-73.95-16.19v-17.94c0-6.71-.08-13.49-.22-20.35-.15-6.85-.29-13.63-.44-20.35-.15-6.71-.22-12.69-.22-17.94-4.96,7.29-11.23,13.35-18.81,18.16-7.59,4.81-14.73,9.7-21.44,14.66-7.29,5.54-13.13,11.09-17.5,16.63-4.38,5.54-6.56,13.71-6.56,24.5,0,8.75,2.99,15.83,8.97,21.22,5.98,5.4,13.49,8.09,22.53,8.09,5.25,0,9.77-.88,13.56-2.62,3.79-1.75,7-3.94,9.63-6.56,2.62-2.62,4.81-5.47,6.56-8.53,1.75-3.06,3.06-6.05,3.94-8.97Z"/><path class="cls-1" d="M611.41,202.64h-5.25c-5.54,0-9.34,1.9-11.38,5.69-.88,1.17-1.53,2.78-1.97,4.81-.44,2.04-.73,5.98-.88,11.81-.15,5.84-.29,14.22-.44,25.16-.15,10.94-.22,25.89-.22,44.85,0,12.25-.22,22.53-.66,30.85s-1.03,15.31-1.75,21c-.73,5.69-1.75,10.43-3.06,14.22-1.31,3.79-2.84,7.15-4.59,10.06-10.21,17.5-28.3,26.25-54.26,26.25-13.13,0-24.8-1.75-35-5.25-10.21-3.5-18.53-9.04-24.94-16.63-2.62-2.91-4.81-6.41-6.56-10.5-1.75-4.08-3.14-9.41-4.16-15.97-1.03-6.56-1.83-14.66-2.41-24.28-.59-9.63-.88-21.44-.88-35.44,0-17.79-.08-31.94-.22-42.44-.15-10.5-.29-18.52-.44-24.07-.15-5.54-.44-9.26-.88-11.16-.44-1.89-.95-3.28-1.53-4.16-1.17-1.75-2.92-2.99-5.25-3.72-2.34-.72-6.28-1.09-11.81-1.09v-19.69h84.89v19.69h-6.56c-4.09,0-7.44,1.46-10.06,4.38-1.17,1.17-2.04,2.62-2.62,4.38-.59,1.75-1.09,5.18-1.53,10.28-.44,5.11-.73,12.4-.88,21.88-.15,9.48-.22,22.68-.22,39.6,0,15.17,.14,27.35,.44,36.54,.29,9.19,.66,16.48,1.09,21.88,.44,5.4,1.02,9.48,1.75,12.25,.72,2.78,1.67,5.33,2.84,7.66,2.91,5.84,6.27,9.84,10.06,12.03,3.79,2.19,9.04,3.28,15.75,3.28,5.83,0,10.72-1.16,14.66-3.5,3.94-2.33,7.36-6.27,10.28-11.81,1.16-2.33,2.11-4.88,2.84-7.66,.72-2.77,1.31-6.78,1.75-12.03,.44-5.25,.73-12.18,.88-20.78,.14-8.6,.22-20.2,.22-34.79s-.08-27.35-.22-36.54c-.15-9.19-.29-16.55-.44-22.1-.15-5.54-.44-9.55-.88-12.03-.44-2.47-.95-4.44-1.53-5.91-1.46-4.66-6.13-7-14-7h-3.5v-19.69h73.51v19.69Z"/><path class="cls-1" d="M687.54,204.83c4.96-7,11.66-13.2,20.13-18.6,8.46-5.39,18.52-8.09,30.19-8.09,17.5,0,30.63,4.67,39.38,14,8.75,9.34,13.13,24.5,13.13,45.51,0,9.92-2.78,17.87-8.31,23.85-5.54,5.98-12.4,8.97-20.56,8.97s-15.17-2.77-20.13-8.31c-4.96-5.54-7.44-12.83-7.44-21.88,0-7.58,1.97-14.36,5.91-20.35,3.94-5.98,9.55-8.97,16.85-8.97,0-4.96-1.83-8.31-5.47-10.06-3.65-1.75-7.51-2.62-11.59-2.62-12.25,0-21.73,4.81-28.44,14.44-6.71,9.63-10.06,25.67-10.06,48.13v66.07c0,10.5,.07,18.45,.22,23.85,.14,5.4,.29,8.97,.44,10.72,.14,1.75,.51,3.21,1.09,4.38,.88,2.34,2.33,4.09,4.38,5.25,2.04,1.17,5.54,1.75,10.5,1.75h10.5v20.13h-90.57v-20.13h6.56c5.83,0,9.77-2.91,11.81-8.75,.58-1.75,1.09-3.79,1.53-6.13,.44-2.33,.73-6.56,.88-12.69,.14-6.13,.29-15.16,.44-27.13,.14-11.96,.22-28.73,.22-50.32v-28.44c0-7.29-.15-12.98-.44-17.06-.29-4.08-.66-7.07-1.09-8.97-.44-1.89-1.09-3.28-1.97-4.16-1.75-1.75-3.58-3.28-5.47-4.59-1.9-1.31-4.59-1.97-8.09-1.97h-4.38v-19.69h11.81c5.83,0,10.72,.37,14.66,1.09,3.94,.73,7.29,1.97,10.06,3.72,2.77,1.75,5.17,4.01,7.22,6.78,2.04,2.78,4.08,6.2,6.13,10.28Z"/><path class="cls-1" d="M955.32,343.09c-11.09,36.17-33.11,54.26-66.07,54.26-12.55,0-23.78-3.28-33.69-9.85-9.92-6.56-18.23-15.38-24.94-26.47-5.25-8.46-9.26-18.52-12.03-30.19-2.78-11.66-4.16-25.52-4.16-41.57,0-21.88,2.11-39.52,6.34-52.94,4.23-13.41,10.13-24.5,17.72-33.25,6.71-7.58,14.36-13.63,22.97-18.16,8.6-4.52,17.87-6.78,27.79-6.78,20.13,0,35.95,5.11,47.47,15.31,11.52,10.21,17.28,25.67,17.28,46.38,0,4.38-.44,8.25-1.31,11.6-.88,3.36-2.62,6.5-5.25,9.41-2.62,2.92-6.2,5.69-10.72,8.31-4.53,2.62-10.43,5.54-17.72,8.75l-59.51,26.25c0,11.67,.22,21.22,.66,28.66s1.09,13.42,1.97,17.94c.88,4.53,1.97,8.09,3.28,10.72s2.69,4.81,4.16,6.56c5.83,6.71,12.4,10.06,19.69,10.06,14.88,0,26.91-3.86,36.1-11.59,9.19-7.73,15.24-16.41,18.16-26.04l11.81,2.63Zm-33.25-105.89c0-13.13-2.26-22.97-6.78-29.54-4.53-6.56-13.2-9.84-26.03-9.84-4.38,0-8.39,1.09-12.03,3.28-3.65,2.19-6.93,5.03-9.84,8.53-1.46,1.75-2.62,3.79-3.5,6.13-.88,2.34-1.68,6.06-2.41,11.16-.73,5.11-1.24,11.89-1.53,20.35-.29,8.46-.44,19.55-.44,33.25l51.19-21c4.08-1.46,7-3.86,8.75-7.22,1.75-3.35,2.62-8.38,2.62-15.1Z"/><path class="cls-1" d="M1166.65,392.97h-84.01v-20.13h6.13c5.54,0,9.04-1.16,10.5-3.5,.88-.88,1.6-2.26,2.19-4.16,.58-1.89,1.09-5.83,1.53-11.81,.44-5.98,.8-14.58,1.09-25.82,.29-11.23,.44-26.76,.44-46.6,0-14-.15-25.01-.44-33.04-.29-8.02-.81-14.36-1.53-19.03-.73-4.66-1.75-8.16-3.06-10.5-1.31-2.33-3-4.81-5.03-7.44-4.96-6.13-12.25-9.19-21.88-9.19-5.25,0-9.63,1.03-13.13,3.06-3.5,2.04-6.42,4.53-8.75,7.44-1.75,2.34-3.28,5.11-4.59,8.31-1.31,3.21-2.34,7.44-3.06,12.69-.73,5.25-1.24,11.89-1.53,19.91-.29,8.03-.44,18.01-.44,29.97v43.75c0,10.5,.07,18.45,.22,23.85,.14,5.4,.29,8.97,.44,10.72,.14,1.75,.51,3.21,1.09,4.38,.88,2.34,2.33,4.09,4.38,5.25,2.04,1.17,5.54,1.75,10.5,1.75h4.38v20.13h-84.45v-20.13h6.56c5.83,0,9.77-2.91,11.81-8.75,.58-1.75,1.09-3.79,1.53-6.13,.44-2.33,.73-6.56,.88-12.69,.14-6.13,.29-15.16,.44-27.13,.14-11.96,.22-28.73,.22-50.32v-28.44c0-7.29-.15-12.98-.44-17.06-.29-4.08-.66-7.07-1.09-8.97-.44-1.89-1.09-3.28-1.97-4.16-1.75-1.75-3.58-3.28-5.47-4.59-1.9-1.31-4.59-1.97-8.09-1.97h-4.38v-19.69h11.81c5.83,0,10.65,.37,14.44,1.09,3.79,.73,7,1.97,9.63,3.72,2.63,1.75,4.88,3.94,6.78,6.56,1.89,2.63,3.86,5.69,5.91,9.19,5.83-8.16,12.91-14.44,21.22-18.82,8.31-4.38,19.76-6.56,34.35-6.56,12.25,0,22.53,2.04,30.85,6.13,8.31,4.09,15.02,9.34,20.13,15.75,5.1,6.42,8.75,13.5,10.94,21.22,2.19,7.73,3.28,15.1,3.28,22.1,0,28.3,.14,50.47,.44,66.51,.29,16.05,.58,28.22,.88,36.54,.29,8.31,.66,13.78,1.09,16.41s.8,4.38,1.09,5.25c1.16,3.21,4.96,4.81,11.38,4.81h4.81v20.13Z"/></g><g><path class="cls-1" d="M1714.54,476.2h-85.94v-20.81h4.07c6.03,0,10.18-.83,12.44-2.49,2.26-1.66,3.54-5.2,3.84-10.63,.6-12.97,1.13-25.63,1.58-38,.45-12.36,.83-26.3,1.13-41.84,.3-15.53,.52-33.54,.68-54.05,.15-20.5,.23-45.53,.23-75.08v-23.75c0-7.99-.16-16.35-.45-25.1-22.62,113.69-40.71,210.93-54.28,291.74h-36.18c-1.21-7.24-3.1-18.25-5.65-33.02-2.57-14.78-5.51-31.44-8.82-49.98-3.32-18.54-6.94-38.14-10.86-58.8-3.92-20.65-7.69-40.55-11.31-59.71-3.62-19.15-7.01-36.64-10.18-52.47-3.17-15.83-5.65-28.27-7.46-37.32-.3,9.35-.53,19.07-.68,29.17-.16,10.11-.23,19.68-.23,28.72,0,5.13,.07,13.12,.23,23.97,.15,10.86,.3,23,.45,36.41,.15,13.42,.37,27.52,.68,42.29,.3,14.78,.6,28.72,.91,41.84,.3,13.12,.6,24.65,.9,34.6,.3,9.95,.6,16.88,.9,20.81,.3,5.72,1.65,9.27,4.07,10.63,2.41,1.36,6.33,2.04,11.76,2.04h5.43v20.81h-66.94v-21.26h4.07c8.44,0,13.41-1.36,14.93-4.07,.6-1.51,1.13-3.47,1.58-5.88,.45-2.42,.97-7.39,1.58-14.93,.3-6.94,.52-14.25,.68-21.94,.15-7.69,.38-18.39,.68-32.11,.3-13.72,.52-31.73,.68-54.05,.15-22.31,.23-51.71,.23-88.2,0-28.04-.16-50.89-.45-68.53-.3-17.64-.68-31.66-1.13-42.07-.45-10.4-1.06-18.09-1.81-23.07-.76-4.98-1.58-8.67-2.49-11.08-1.51-3.01-3.1-5.27-4.75-6.78-1.66-1.51-5.05-2.26-10.18-2.26h-3.62v-20.35h71.01c.9,9.35,2.41,21.56,4.52,36.64,2.11,15.08,4.52,32.04,7.24,50.89,2.71,18.85,5.72,38.98,9.05,60.38,3.31,21.41,6.86,43.2,10.63,65.36,3.77,22.16,7.53,44.26,11.31,66.26,3.77,22.01,7.46,42.82,11.08,62.42,4.52-18.69,9.2-38.52,14.02-59.48,4.82-20.96,9.79-44.78,14.93-71.47,5.12-26.69,10.7-57.14,16.74-91.37,6.03-34.22,12.66-74.1,19.9-119.64h59.25v20.35h-4.07c-3.62,0-6.64,.76-9.05,2.26-2.42,1.51-4.52,4.83-6.33,9.95-1.21,4.52-2.19,9.43-2.94,14.7-.76,5.28-1.36,13.12-1.81,23.52-.45,10.4-.76,24.43-.91,42.07-.16,17.64-.23,40.93-.23,69.88v65.59c0,18.7,.15,34.83,.45,48.4,.3,13.57,.52,24.96,.68,34.15,.15,9.19,.37,17.03,.68,23.52,.3,6.48,.6,11.91,.9,16.28,.3,4.37,.75,8.37,1.36,11.99,.6,6.33,2.26,10.1,4.98,11.31,2.71,1.2,6.48,1.81,11.31,1.81h4.97v20.81Z"/><path class="cls-1" d="M1916.27,361.76c0,9.65-2.94,17.87-8.82,24.65s-14.55,10.18-26.01,10.18c-8.14,0-15.15-2.71-21.03-8.14s-10.63-11.76-14.25-19c-6.04,8.45-13.34,15.23-21.94,20.35-8.59,5.12-19.07,7.69-31.44,7.69-21.71,0-37.92-4.67-48.62-14.02-10.71-9.34-16.06-22.31-16.06-38.9,0-11.46,2.11-20.73,6.33-27.82,4.22-7.08,11.6-13.8,22.16-20.13,7.84-5.12,16.81-9.87,26.91-14.25,10.1-4.37,19.97-9.57,29.63-15.61,4.22-2.71,8.59-5.43,13.12-8.14,4.52-2.71,8.44-5.88,11.76-9.5,0-12.96-.45-23.14-1.36-30.53-.91-7.39-2.87-13.19-5.88-17.41-2.71-4.22-5.88-7.08-9.5-8.59-3.62-1.5-8.9-2.26-15.83-2.26-7.54,0-13.72,1.36-18.54,4.07-4.83,2.71-7.69,6.18-8.59,10.4,13.27,4.83,19.9,15.08,19.9,30.76,0,8.45-2.71,15.76-8.14,21.94-5.43,6.18-12.21,9.27-20.35,9.27-8.75,0-15.83-2.78-21.26-8.37-5.43-5.58-8.14-13.94-8.14-25.1,0-9.65,1.88-18.32,5.65-26.01,3.77-7.69,8.89-14.25,15.38-19.67,6.48-5.43,14.02-9.57,22.62-12.44,8.59-2.86,17.56-4.3,26.91-4.3,10.86,0,20.73,1.36,29.63,4.07,8.89,2.71,16.21,7.39,21.94,14.02,3.62,4.23,6.56,9.05,8.82,14.47,2.26,5.43,3.99,12.14,5.2,20.13,1.2,7.99,2.04,17.72,2.49,29.17,.45,11.46,.68,25.33,.68,41.61v31.21c0,7.84,.15,14.1,.45,18.77,.3,4.68,.52,8.3,.68,10.86,.15,2.57,.52,4.91,1.13,7.01,.9,4.23,2.11,6.94,3.62,8.14,1.51,1.21,3.17,1.81,4.98,1.81,5.12,0,7.69-4.07,7.69-12.21v-14.93h18.09v16.74Zm-76.44-16.74v-18.54c0-6.93-.08-13.94-.23-21.03-.16-7.08-.3-14.09-.45-21.03-.16-6.93-.23-13.12-.23-18.54-5.13,7.54-11.61,13.8-19.45,18.77-7.84,4.98-15.23,10.03-22.16,15.15-7.54,5.73-13.57,11.46-18.09,17.19-4.52,5.73-6.79,14.18-6.79,25.33,0,9.05,3.09,16.36,9.27,21.94,6.18,5.58,13.94,8.37,23.29,8.37,5.43,0,10.1-.9,14.02-2.71,3.92-1.81,7.24-4.07,9.95-6.78s4.98-5.65,6.78-8.82c1.81-3.17,3.17-6.25,4.07-9.27Z"/><path class="cls-1" d="M2042.91,406.54c-.3,4.52-1.58,9.12-3.84,13.8-2.26,4.67-5.36,8.82-9.27,12.44-3.92,3.62-8.59,6.63-14.02,9.05-5.43,2.41-11.61,3.62-18.54,3.62-9.95,0-18.77-1.43-26.46-4.3-7.69-2.87-14.55-8.82-20.58-17.87-2.11-3.32-4-7.24-5.65-11.76-1.66-4.52-3.02-10.33-4.07-17.41-1.06-7.08-1.89-15.83-2.49-26.23-.61-10.4-.91-23.14-.91-38.22v-57.67c0-14.93-.08-27.14-.23-36.64-.16-9.5-.38-17.11-.68-22.84-.3-5.72-.61-11.15-.9-16.28h-23.97v-20.35h3.17c7.24,0,13.87-2.41,19.9-7.24,6.03-4.82,11.23-11,15.61-18.54,4.37-7.53,7.76-16.06,10.18-25.56,2.41-9.5,3.62-18.77,3.62-27.82v-9.05h17.19v88.2h37.09v20.35h-37.09c-.9,7.54-1.58,15.15-2.04,22.84s-.91,16.59-1.36,26.69c-.45,10.11-.76,21.87-.9,35.28-.16,13.42-.23,29.63-.23,48.62,0,13.27,.07,23.97,.23,32.11,.15,8.14,.45,14.86,.9,20.13,.45,5.28,.98,9.72,1.58,13.34,.6,3.62,1.51,7.39,2.71,11.31,1.81,6.93,4.75,11.83,8.82,14.7,4.07,2.86,8.82,4.3,14.25,4.3,6.93,0,12.51-2.19,16.74-6.56,4.22-4.37,7.08-9.43,8.59-15.15l12.66,2.71Z"/><path class="cls-1" d="M2172.73,406.54c-.3,4.52-1.58,9.12-3.84,13.8-2.26,4.67-5.36,8.82-9.27,12.44-3.92,3.62-8.59,6.63-14.02,9.05-5.43,2.41-11.61,3.62-18.54,3.62-9.95,0-18.77-1.43-26.46-4.3-7.69-2.87-14.55-8.82-20.58-17.87-2.11-3.32-4-7.24-5.65-11.76-1.66-4.52-3.02-10.33-4.07-17.41-1.06-7.08-1.89-15.83-2.49-26.23-.61-10.4-.91-23.14-.91-38.22v-57.67c0-14.93-.08-27.14-.23-36.64-.16-9.5-.38-17.11-.68-22.84-.3-5.72-.61-11.15-.9-16.28h-23.97v-20.35h3.17c7.24,0,13.87-2.41,19.9-7.24,6.03-4.82,11.23-11,15.61-18.54,4.37-7.53,7.76-16.06,10.18-25.56,2.41-9.5,3.62-18.77,3.62-27.82v-9.05h17.19v88.2h37.09v20.35h-37.09c-.9,7.54-1.58,15.15-2.04,22.84s-.91,16.59-1.36,26.69c-.45,10.11-.76,21.87-.9,35.28-.16,13.42-.23,29.63-.23,48.62,0,13.27,.07,23.97,.23,32.11,.15,8.14,.45,14.86,.9,20.13,.45,5.28,.98,9.72,1.58,13.34,.6,3.62,1.51,7.39,2.71,11.31,1.81,6.93,4.75,11.83,8.82,14.7,4.07,2.86,8.82,4.3,14.25,4.3,6.93,0,12.51-2.19,16.74-6.56,4.22-4.37,7.08-9.43,8.59-15.15l12.66,2.71Z"/><path class="cls-1" d="M2367.68,392.97h-87.3v-20.81h6.33c3.62,0,6.48-.37,8.59-1.13,2.11-.75,3.69-2.86,4.75-6.33,1.05-3.46,1.65-8.59,1.81-15.38,.15-6.79,.23-16.06,.23-27.82v-89.56c0-4.52-.68-8.97-2.04-13.34-1.36-4.37-3.55-8.37-6.56-11.99-2.71-3.31-6.11-6.11-10.18-8.37-4.07-2.26-8.52-3.39-13.34-3.39-10.25,0-18.32,3.84-24.2,11.53-5.88,7.69-8.82,16.51-8.82,26.46v92.72c0,8.75,.23,16.13,.68,22.16,.45,6.04,1.43,10.86,2.94,14.47,1.5,3.62,3.69,6.18,6.56,7.69,2.86,1.51,6.86,2.26,11.99,2.26v20.81h-86.84v-20.81h6.79c8.44,0,12.81-4.67,13.12-14.02,1.5-27.74,2.41-54.73,2.71-80.96,.3-26.23,.45-53.07,.45-80.51,0-16.88-.16-34.6-.45-53.15-.3-18.54-1.21-40.03-2.71-64.45-.61-6.63-2.49-10.55-5.65-11.76-3.17-1.2-7.92-1.81-14.25-1.81v-20.81h66.94c0,15.38-.16,34.53-.45,57.44-.3,22.92-.76,51.72-1.36,86.39,4.22-6.03,9.42-10.47,15.6-13.34,6.18-2.86,14.09-4.3,23.75-4.3s18.47,1.51,26.46,4.52c7.99,3.02,15,7.09,21.03,12.21,6.93,6.04,12.36,13.27,16.28,21.71,3.92,8.45,5.88,17.8,5.88,28.04v61.06c0,18.09,.3,32.11,.9,42.07,.6,9.95,1.73,17.27,3.39,21.94,1.65,4.68,3.84,7.46,6.56,8.37,2.71,.9,6.18,1.36,10.4,1.36v20.81Z"/><path class="cls-1" d="M2525.98,341.41c-11.46,37.39-34.23,56.09-68.3,56.09-12.97,0-24.58-3.39-34.83-10.18-10.25-6.78-18.85-15.9-25.78-27.36-5.43-8.74-9.58-19.15-12.44-31.21-2.87-12.06-4.3-26.38-4.3-42.97,0-22.62,2.18-40.86,6.56-54.73,4.37-13.87,10.47-25.33,18.32-34.38,6.93-7.84,14.85-14.09,23.75-18.77,8.89-4.67,18.47-7.01,28.72-7.01,20.81,0,37.16,5.28,49.08,15.83,11.91,10.56,17.87,26.54,17.87,47.95,0,4.52-.45,8.52-1.36,11.99-.9,3.47-2.71,6.71-5.43,9.72-2.71,3.02-6.41,5.88-11.08,8.59-4.68,2.71-10.79,5.73-18.32,9.05l-61.51,27.14c0,12.06,.23,21.94,.68,29.63s1.13,13.87,2.04,18.54c.91,4.68,2.04,8.37,3.39,11.08,1.36,2.71,2.78,4.98,4.3,6.78,6.03,6.94,12.81,10.4,20.35,10.4,15.38,0,27.82-3.99,37.32-11.99,9.5-7.99,15.75-16.96,18.77-26.91l12.21,2.71Zm-34.38-109.46c0-13.57-2.34-23.75-7.01-30.53-4.68-6.78-13.65-10.18-26.91-10.18-4.52,0-8.67,1.13-12.44,3.39-3.77,2.26-7.17,5.2-10.18,8.82-1.51,1.81-2.71,3.92-3.62,6.33-.9,2.42-1.74,6.26-2.49,11.53-.76,5.28-1.29,12.29-1.58,21.03-.3,8.75-.45,20.21-.45,34.38l52.92-21.71c4.22-1.51,7.24-3.99,9.05-7.46,1.81-3.46,2.71-8.67,2.71-15.61Z"/><path class="cls-1" d="M2803.25,196.22h-4.07c-3.32,0-5.96,.83-7.92,2.49-1.96,1.66-3.7,5.36-5.2,11.08-3.02,9.95-6.11,21.71-9.27,35.28s-6.49,28.27-9.95,44.1c-3.47,15.83-6.78,32.57-9.95,50.21-3.17,17.64-6.26,35.51-9.27,53.6h-28.95c-2.71-10.55-5.88-22.01-9.5-34.38-3.62-12.36-7.32-24.88-11.08-37.54-3.77-12.67-7.62-25.17-11.53-37.54-3.92-12.36-7.69-23.97-11.31-34.83-6.04,19.9-12.52,42.22-19.45,66.94-6.94,24.73-13.42,50.51-19.45,77.35h-31.66c-3.02-14.77-6.56-31.21-10.63-49.3-4.07-18.09-8.22-35.96-12.44-53.6-4.23-17.64-8.37-33.99-12.44-49.08-4.07-15.08-7.62-26.98-10.63-35.73-2.11-6.03-6.18-9.05-12.21-9.05h-2.26v-20.35h86.39v20.35h-8.59c-3.02,0-6.33,.45-9.95,1.36-3.62,.91-5.43,3.92-5.43,9.05,0,1.21,.07,2.71,.23,4.52,.15,1.81,.52,4.38,1.13,7.69,3.31,21.11,7.16,41.84,11.53,62.19,4.37,20.35,8.97,38.52,13.8,54.5,2.41-7.53,5.27-16.88,8.59-28.04,3.32-11.15,6.56-22.69,9.73-34.6,3.17-11.91,6.11-23.44,8.82-34.6,2.71-11.15,4.52-20.5,5.43-28.04h38c1.5,7.54,3.69,16.81,6.56,27.82,2.86,11.01,6.03,22.39,9.5,34.15,3.46,11.76,7.01,23.29,10.63,34.6,3.62,11.31,6.93,20.88,9.95,28.72,3.92-14.47,7.69-31.51,11.31-51.11,3.62-19.6,7.08-41,10.4-64.23,.3-1.51,.6-3.99,.9-7.46,.3-3.46,.45-5.95,.45-7.46,0-2.41-1.21-4.52-3.62-6.33-2.42-1.81-6.18-2.71-11.31-2.71h-6.33v-20.35h61.06v20.35Z"/></g></svg>