<?xml version="1.0" encoding="UTF-8"?><svg id="_Layer_" xmlns="http://www.w3.org/2000/svg" viewBox="0 0 434.99 167.7"><defs><style>.cls-1{fill:#ceb27c;}.cls-2{fill:#c6cec8;}.cls-3{opacity:.39;}</style></defs><path class="cls-1" d="M166.1,86.18h39.12c.32,1.56,.96,3.01,1.83,4.28l-13.66,13.66c-.91,.91-.91,2.38,0,3.29,.45,.45,1.05,.68,1.65,.68s1.19-.23,1.64-.68l13.73-13.73c1.17,.74,2.47,1.29,3.87,1.57v39.12c0,1.28,1.04,2.33,2.33,2.33s2.33-1.04,2.33-2.33v-39.12c1.24-.25,2.4-.71,3.46-1.32l13.48,13.48c.45,.45,1.05,.68,1.65,.68s1.19-.23,1.64-.68c.91-.91,.91-2.38,0-3.29l-13.28-13.28c1.02-1.36,1.77-2.93,2.12-4.66h39.12c1.28,0,2.33-1.04,2.33-2.33s-1.04-2.33-2.33-2.33h-39.12c-.32-1.56-.96-3.01-1.83-4.28l13.66-13.66c.91-.91,.91-2.38,0-3.29-.91-.91-2.38-.91-3.29,0l-13.73,13.73c-1.17-.74-2.47-1.29-3.87-1.57V33.34c0-1.28-1.04-2.33-2.33-2.33s-2.33,1.04-2.33,2.33v39.12c-1.56,.32-3.01,.96-4.28,1.83l-13.99-13.99c-.91-.91-2.38-.91-3.29,0-.91,.91-.91,2.38,0,3.29l14.06,14.06c-.74,1.17-1.29,2.47-1.57,3.87h-39.12c-1.28,0-2.33,1.04-2.33,2.33s1.04,2.33,2.33,2.33Zm50.51-9.31c3.85,0,6.98,3.13,6.98,6.98s-3.13,6.98-6.98,6.98-6.98-3.13-6.98-6.98,3.13-6.98,6.98-6.98Z"/><g><g class="cls-3"><path class="cls-2" d="M30.93,119.04c2.4,.53,4.9,.81,7.46,.81,19.17,0,34.7-15.54,34.7-34.7s-15.54-34.7-34.7-34.7c-2.56,0-5.06,.29-7.46,.81,15.58,3.41,27.24,17.29,27.24,33.89s-11.66,30.48-27.24,33.89Z"/></g><g class="cls-3"><path class="cls-2" d="M105.32,116.39c4.57,2.22,9.7,3.46,15.12,3.46,19.17,0,34.7-15.54,34.7-34.7s-15.54-34.7-34.7-34.7c-5.42,0-10.55,1.24-15.12,3.46,11.59,5.62,19.58,17.5,19.58,31.24s-7.99,25.62-19.58,31.24Z"/></g><g class="cls-3"><path class="cls-2" d="M248.19,70.76c-.1-.22-.19-.44-.29-.65-5.6-11.63-17.51-19.66-31.28-19.66s-25.68,8.03-31.28,19.66c-.1,.21-.2,.43-.29,.65-.13,.29-.27,.59-.4,.89-1.76,4.15-2.73,8.72-2.73,13.51,0,19.17,15.54,34.7,34.7,34.7s34.7-15.54,34.7-34.7c0-4.79-.97-9.36-2.73-13.51-.12-.31-.26-.6-.4-.89Z"/></g><g class="cls-3"><path class="cls-2" d="M402.31,51.26c-2.4-.53-4.9-.81-7.46-.81-19.17,0-34.7,15.54-34.7,34.7s15.54,34.7,34.7,34.7c2.56,0,5.06-.29,7.46-.81-15.58-3.41-27.24-17.29-27.24-33.89,0-16.6,11.66-30.47,27.24-33.89Z"/></g><g class="cls-3"><path class="cls-2" d="M327.91,53.91c-4.57-2.22-9.7-3.46-15.12-3.46-19.17,0-34.7,15.54-34.7,34.7s15.54,34.7,34.7,34.7c5.42,0,10.55-1.24,15.12-3.46-11.59-5.62-19.58-17.5-19.58-31.24s7.99-25.62,19.58-31.24Z"/></g></g></svg>