<?xml version="1.0" encoding="UTF-8"?><svg id="_Layer_" xmlns="http://www.w3.org/2000/svg" viewBox="0 0 434.99 167.7"><defs><style>.cls-1{fill:#c6cec8;}.cls-2{opacity:.39;}</style></defs><g class="cls-2"><path class="cls-1" d="M45.47,119.05c2.4,.53,4.9,.81,7.46,.81,19.17,0,34.7-15.54,34.7-34.7s-15.54-34.7-34.7-34.7c-2.56,0-5.06,.29-7.46,.81,15.58,3.41,27.24,17.29,27.24,33.89s-11.66,30.48-27.24,33.89Z"/></g><g class="cls-2"><path class="cls-1" d="M119.86,116.4c4.57,2.22,9.7,3.46,15.12,3.46,19.17,0,34.7-15.54,34.7-34.7s-15.54-34.7-34.7-34.7c-5.42,0-10.55,1.24-15.12,3.46,11.59,5.62,19.58,17.5,19.58,31.24s-7.99,25.62-19.58,31.24Z"/></g><g class="cls-2"><path class="cls-1" d="M262.73,70.77c-.1-.22-.19-.44-.29-.65-5.6-11.63-17.51-19.66-31.28-19.66s-25.68,8.03-31.28,19.66c-.1,.21-.2,.43-.29,.65-.13,.29-.27,.59-.4,.89-1.76,4.15-2.73,8.72-2.73,13.51,0,19.17,15.54,34.7,34.7,34.7s34.7-15.54,34.7-34.7c0-4.79-.97-9.36-2.73-13.51-.12-.31-.26-.6-.4-.89Z"/></g><g class="cls-2"><path class="cls-1" d="M416.85,51.27c-2.4-.53-4.9-.81-7.46-.81-19.17,0-34.7,15.54-34.7,34.7s15.54,34.7,34.7,34.7c2.56,0,5.06-.29,7.46-.81-15.58-3.41-27.24-17.29-27.24-33.89,0-16.6,11.66-30.47,27.24-33.89Z"/></g><g class="cls-2"><path class="cls-1" d="M342.45,53.92c-4.57-2.22-9.7-3.46-15.12-3.46-19.17,0-34.7,15.54-34.7,34.7s15.54,34.7,34.7,34.7c5.42,0,10.55-1.24,15.12-3.46-11.59-5.62-19.58-17.5-19.58-31.24s7.99-25.62,19.58-31.24Z"/></g></svg>