<?xml version="1.0" encoding="UTF-8"?><svg id="_Layer_" xmlns="http://www.w3.org/2000/svg" viewBox="0 0 1267.69 120.21"><defs><style>.cls-1{fill:#ceb27c;}</style></defs><path class="cls-1" d="M68.84,34.68v37.73h-3.24V30.22h3.74l23.04,30.1,23.19-30.1h3.24v42.2h-3.17V35.18l-22.39,29.24h-1.95l-22.46-29.74Z"/><path class="cls-1" d="M143.65,72.41V30.22h3.24v42.2h-3.24Z"/><path class="cls-1" d="M208.81,67.44V30.22h3.17v42.2h-2.81l-34.78-38.02v38.02h-3.24V30.22h3.53l34.13,37.23Z"/><path class="cls-1" d="M272.96,67.44V30.22h3.17v42.2h-2.81l-34.78-38.02v38.02h-3.24V30.22h3.53l34.13,37.23Z"/><path class="cls-1" d="M303.49,33.31v16.2h26.21v3.1h-26.21v16.71h33.19l-.65,3.1h-35.79V30.22h35.93l.5,3.1h-33.19Z"/><path class="cls-1" d="M392.56,72.41l-3.17-7.85c-3.31,1.51-8.93,3.24-15.19,3.24s-11.16-1.73-14.04-3.1l-3.02,7.7h-3.53l16.49-42.2h8.42l17.57,42.2h-3.53Zm-16.2-39.1h-3.96l-11.16,28.37c3.38,1.51,7.92,3.02,12.96,3.02,6.34,0,10.66-1.58,13.97-3.17l-11.81-28.23Z"/><path class="cls-1" d="M421.86,56.71v15.7h-3.24V30.43c3.74-.36,11.16-.79,14.33-.79,14.69,0,23.12,3.53,23.12,13.97,0,8.93-6.91,13.68-21.96,13.68-3.02,0-9.14-.29-12.24-.58Zm0-23.4v20.31c3.1,.29,8.86,.58,12.1,.58,13.18,0,18.94-3.74,18.94-10.37,0-8.35-6.84-11.09-19.73-11.09-3.17,0-8.21,.36-11.3,.58Z"/><path class="cls-1" d="M473.19,51.17c0-12.24,10.22-22.11,24.55-22.11,13.39,0,24.55,9.22,24.55,22.11s-11.3,22.47-24.55,22.47-24.55-8.93-24.55-22.47Zm3.17,0c0,11.02,10.08,19.44,21.39,19.44s21.31-8.35,21.31-19.37-9.94-19.15-21.31-19.15c-12.03,0-21.39,8.93-21.39,19.08Z"/><path class="cls-1" d="M576.51,72.41h-32.91V30.22h3.24v39.1h30.31l-.65,3.1Z"/><path class="cls-1" d="M596.6,72.41V30.22h3.24v42.2h-3.24Z"/><path class="cls-1" d="M622.3,71.62l-.86-3.82c4.32,1.8,8.93,2.81,14.69,2.81,12.89,0,17.93-3.96,17.93-8.71,0-4.25-2.81-7.06-10.51-8.93l-11.09-2.66c-5.33-1.3-10.73-3.6-10.73-10.08,0-7.13,6.34-11.52,19.59-11.52,6.34,0,11.09,.94,13.03,1.51l.94,3.74c-3.31-1.15-7.2-2.16-13.68-2.16-12.1,0-16.56,3.74-16.56,8.21s3.03,6.12,10.23,7.78l10.44,2.45c7.49,1.73,11.74,5.98,11.74,11.02,0,8.42-6.84,12.46-20.67,12.46-6.34,0-11.3-1.01-14.47-2.09Z"/><path class="cls-1" d="M674,81.7c1.94-2.74,3.53-5.33,3.74-8.28-.14,0-.43,.07-.58,.07-1.37,0-2.95-.72-2.95-2.59,0-2.09,1.87-2.95,3.53-2.95,2.16,0,3.67,1.44,3.67,4.46,0,3.46-1.44,6.41-4.25,10.44l-3.17-1.15Z"/><path class="cls-1" d="M724.68,34.68v37.73h-3.24V30.22h3.74l23.04,30.1,23.19-30.1h3.24v42.2h-3.17V35.18l-22.39,29.24h-1.94l-22.47-29.74Z"/><path class="cls-1" d="M799.49,72.41V30.22h3.24v42.2h-3.24Z"/><path class="cls-1" d="M864.65,67.44V30.22h3.17v42.2h-2.81l-34.78-38.02v38.02h-3.24V30.22h3.53l34.13,37.23Z"/><path class="cls-1" d="M928.81,67.44V30.22h3.17v42.2h-2.81l-34.78-38.02v38.02h-3.24V30.22h3.53l34.13,37.23Z"/><path class="cls-1" d="M959.33,33.31v16.2h26.21v3.1h-26.21v16.71h33.2l-.65,3.1h-35.79V30.22h35.93l.5,3.1h-33.2Z"/><path class="cls-1" d="M1010.09,71.62l-.86-3.82c4.32,1.8,8.93,2.81,14.69,2.81,12.89,0,17.93-3.96,17.93-8.71,0-4.25-2.81-7.06-10.51-8.93l-11.09-2.66c-5.33-1.3-10.73-3.6-10.73-10.08,0-7.13,6.34-11.52,19.59-11.52,6.34,0,11.09,.94,13.03,1.51l.94,3.74c-3.31-1.15-7.2-2.16-13.68-2.16-12.1,0-16.56,3.74-16.56,8.21s3.02,6.12,10.22,7.78l10.44,2.45c7.49,1.73,11.74,5.98,11.74,11.02,0,8.42-6.84,12.46-20.67,12.46-6.34,0-11.3-1.01-14.47-2.09Z"/><path class="cls-1" d="M1062.86,51.17c0-12.24,10.22-22.11,24.55-22.11,13.39,0,24.55,9.22,24.55,22.11s-11.3,22.47-24.55,22.47-24.55-8.93-24.55-22.47Zm3.17,0c0,11.02,10.08,19.44,21.39,19.44s21.31-8.35,21.31-19.37-9.94-19.15-21.31-19.15c-12.03,0-21.39,8.93-21.39,19.08Z"/><path class="cls-1" d="M1152.07,33.31v39.1h-3.17V33.31h-22.11l.65-3.1h46.08l.65,3.1h-22.11Z"/><path class="cls-1" d="M1219.11,72.41l-3.17-7.85c-3.31,1.51-8.93,3.24-15.19,3.24s-11.16-1.73-14.04-3.1l-3.02,7.7h-3.53l16.49-42.2h8.43l17.57,42.2h-3.53Zm-16.2-39.1h-3.96l-11.16,28.37c3.38,1.51,7.92,3.02,12.96,3.02,6.34,0,10.66-1.58,13.97-3.17l-11.81-28.23Z"/></svg>