<?xml version="1.0" encoding="UTF-8"?><svg id="Layer_1" xmlns="http://www.w3.org/2000/svg" viewBox="0 0 75 72"><defs><style>.cls-1{fill:#ceb27c;}</style></defs><path class="cls-1" d="M10.51,35.77H31.75c.17,.85,.52,1.63,1,2.32l-7.42,7.42c-.49,.49-.49,1.29,0,1.79,.25,.25,.57,.37,.89,.37s.65-.12,.89-.37l7.45-7.45c.64,.4,1.34,.7,2.1,.85v21.24c0,.7,.57,1.26,1.26,1.26s1.26-.57,1.26-1.26v-21.24c.67-.14,1.3-.39,1.88-.72l7.32,7.32c.25,.25,.57,.37,.89,.37s.65-.12,.89-.37c.49-.49,.49-1.29,0-1.79l-7.21-7.21c.56-.74,.96-1.59,1.15-2.53h21.24c.7,0,1.26-.57,1.26-1.26s-.57-1.26-1.26-1.26h-21.24c-.17-.85-.52-1.63-1-2.32l7.42-7.42c.49-.49,.49-1.29,0-1.79-.49-.49-1.29-.49-1.79,0l-7.45,7.45c-.63-.4-1.34-.7-2.1-.85V7.08c0-.7-.57-1.26-1.26-1.26s-1.26,.57-1.26,1.26V28.32c-.85,.17-1.63,.52-2.32,1l-7.6-7.6c-.49-.49-1.29-.49-1.79,0-.49,.49-.49,1.29,0,1.79l7.64,7.64c-.4,.64-.7,1.34-.85,2.1H10.51c-.7,0-1.26,.57-1.26,1.26s.57,1.26,1.26,1.26Zm27.43-5.05c2.09,0,3.79,1.7,3.79,3.79s-1.7,3.79-3.79,3.79-3.79-1.7-3.79-3.79,1.7-3.79,3.79-3.79Z"/></svg>